<?xml version="1.0" encoding="UTF-8" standalone="no"?>
<svg
   xmlns:dc="http://purl.org/dc/elements/1.1/"
   xmlns:cc="http://creativecommons.org/ns#"
   xmlns:rdf="http://www.w3.org/1999/02/22-rdf-syntax-ns#"
   xmlns:svg="http://www.w3.org/2000/svg"
   xmlns="http://www.w3.org/2000/svg"
   xmlns:sodipodi="http://sodipodi.sourceforge.net/DTD/sodipodi-0.dtd"
   xmlns:inkscape="http://www.inkscape.org/namespaces/inkscape"
   width="4096"
   height="4096"
   viewBox="0 0 4096 4096"
   version="1.1"
   id="svg16"
   sodipodi:docname="vfl-wolfsburg-logo.svg"
   inkscape:export-filename="G:\Users\suitedoalex\sites\vfl-wolfsburg-logo-0.png"
   inkscape:export-xdpi="96"
   inkscape:export-ydpi="96"
   inkscape:version="0.92.4 (5da689c313, 2019-01-14)">
  <metadata
     id="metadata20">
    <rdf:RDF>
      <cc:Work
         rdf:about="">
        <dc:format>image/svg+xml</dc:format>
        <dc:type
           rdf:resource="http://purl.org/dc/dcmitype/StillImage" />
        <dc:title>vfl-wolfsburg-white-bg</dc:title>
      </cc:Work>
    </rdf:RDF>
  </metadata>
  <sodipodi:namedview
     pagecolor="#ffffff"
     bordercolor="#666666"
     borderopacity="1"
     objecttolerance="10"
     gridtolerance="10"
     guidetolerance="10"
     inkscape:pageopacity="0"
     inkscape:pageshadow="2"
     inkscape:window-width="1600"
     inkscape:window-height="837"
     id="namedview18"
     showgrid="false"
     inkscape:zoom="0.10429825"
     inkscape:cx="1552.2362"
     inkscape:cy="1555.152"
     inkscape:window-x="-8"
     inkscape:window-y="-8"
     inkscape:window-maximized="1"
     inkscape:current-layer="vfl-wolfsburg-white-bg" />
  <!-- Generator: Sketch 50.2 (55047) - http://www.bohemiancoding.com/sketch -->
  <title
     id="title2">vfl-wolfsburg-white-bg</title>
  <desc
     id="desc4">Created with Sketch.</desc>
  <defs
     id="defs7">
    <polygon
       id="path-1"
       points="189.89563,192.51549 0,192.51549 0,2.424507 189.89563,2.424507 " />
  </defs>
  <g
     id="vfl-wolfsburg-white-bg"
     style="fill:none;fill-rule:evenodd;stroke:none;stroke-width:1"
     transform="translate(0,3896)">
    <g
       id="Group"
       transform="matrix(15.917172,0,0,15.917172,536.6993,-3400.7246)"
       inkscape:export-filename="G:\Users\suitedoalex\sites\vfl-wolfsburg-logo-4.png"
       inkscape:export-xdpi="12.704288"
       inkscape:export-ydpi="12.704288">
      <g
         id="Group-3">
        <g
           id="Clip-2" />
        <path
           d="m 189.89563,97.726901 c 0,52.439999 -42.50915,94.949159 -94.949151,94.949159 C 42.509155,192.67606 0,150.1669 0,97.726901 0,45.289577 42.511831,2.424507 94.946479,2.424507 c 52.440001,0 94.949151,37.983944 94.949151,95.302394"
           id="Fill-1"
           mask="url(#mask-2)"
           style="fill:#ffffff"
           inkscape:connector-curvature="0" />
      </g>
      <path
         d="M 1.6912676,97.619859 C 3.5591549,39.699296 43.365493,16.085775 69.497183,7.8595775 81.445775,4.0997183 91.909155,3.9739437 91.863662,5.3307042 c -0.04014,1.185493 -9.002254,0.1953521 -21.686761,4.7767608 -22.109577,7.990704 -53.424788,27.849718 -55.33014,78.678732 0,46.740003 37.919718,84.630283 84.702535,84.630283 46.769434,0 84.691834,-37.89028 84.691834,-84.630283 0.12845,-9.99507 -1.67789,-17.894789 -3.93916,-24.729436 -3.96859,-12.010141 -9.09056,-17.576338 -6.87211,-17.62986 1.52803,-0.02676 6.14422,9.406338 9.35817,18.205212 3.73577,10.243943 5.45915,19.556619 5.41366,32.987746 0,51.473941 -41.75718,93.188311 -93.260563,93.188311 -51.498028,0 -93.2498594,-41.71437 -93.2498594,-93.188311"
         id="Fill-4"
         inkscape:connector-curvature="0"
         style="fill:#5eb245" />
      <path
         d="m 85.668592,68.287606 c 0,-16.572817 27.172678,-15.001972 27.172678,-15.001972 v 59.098026 c 0,4.12648 2.60915,6.61521 7.31366,6.61521 7.50634,0 6.99521,-6.61521 6.99521,-6.61521 0,4.12648 -0.0268,-42.948026 -0.0268,-60.797322 0,-14.841408 27.00408,-14.841408 27.00408,-14.841408 v 78.66268 l -0.11507,4.8838 c -2.3014,14.84944 -15.16788,26.20929 -30.37323,26.20929 -9.98972,0 -18.85015,-4.90521 -24.413667,-12.47309 -5.560845,7.56788 -14.42662,12.47309 -24.413662,12.47309 -15.208028,0 -27.81493,-11.35985 -30.110986,-26.20929 l -0.371972,-4.8838 c 0,0 -0.02408,-43.376202 -0.02408,-63.821272 0,-14.841408 27.036197,-14.841408 27.036197,-14.841408 0,0 -0.0107,75.59056 -0.0107,75.65479 0,4.17465 2.967746,6.59915 6.995211,6.59915 3.984648,0 7.377887,-2.54225 7.377887,-6.59915 0,0 -0.03479,-30.193945 -0.03479,-44.112114"
         id="Fill-5"
         inkscape:connector-curvature="0"
         style="fill:#5eb245" />
    </g>
  </g>
</svg>
