<?xml version="1.0" encoding="UTF-8"?>
<svg xmlns="http://www.w3.org/2000/svg" xmlns:xlink="http://www.w3.org/1999/xlink" width="90.71pt" height="147.27pt" viewBox="0 0 90.71 147.27" version="1.1">
<defs>
<clipPath id="clip1">
  <path d="M 9 30 L 90.710938 30 L 90.710938 147.269531 L 9 147.269531 Z M 9 30 "/>
</clipPath>
</defs>
<g id="surface1">
<path style=" stroke:none;fill-rule:nonzero;fill:rgb(100%,100%,100%);fill-opacity:1;" d="M 89.433594 73.632813 C 89.433594 114.023438 69.582031 146.765625 45.089844 146.765625 C 20.597656 146.765625 0.742188 114.023438 0.742188 73.632813 C 0.742188 33.246094 20.597656 0.503906 45.089844 0.503906 C 69.582031 0.503906 89.433594 33.246094 89.433594 73.632813 "/>
<path style=" stroke:none;fill-rule:nonzero;fill:rgb(0%,43.899536%,73.298645%);fill-opacity:1;" d="M 40.566406 0.636719 C 47.1875 -0.511719 54.140625 0.839844 59.949219 4.132813 C 67.285156 8.207031 72.96875 14.652344 77.335938 21.65625 C 78.828125 24.066406 80.164063 26.570313 81.390625 29.128906 C 78.574219 32.53125 75.753906 35.925781 72.917969 39.3125 C 65.675781 33.480469 56.503906 30.011719 47.152344 29.667969 C 38.0625 29.285156 28.878906 31.847656 21.328125 36.84375 C 13.128906 42.1875 6.847656 50.335938 3.851563 59.566406 C 0.941406 68.351563 1.039063 78.074219 4.136719 86.796875 C 6.710938 94.265625 11.496094 100.914063 17.597656 105.988281 C 14.578125 109.578125 11.613281 113.207031 8.597656 116.800781 C 3.355469 105.015625 0.738281 92.199219 0.121094 79.375 C -0.640625 61.742188 2.164063 43.699219 10.007813 27.71875 C 13.234375 21.269531 17.320313 15.164063 22.605469 10.164063 C 27.550781 5.464844 33.726563 1.78125 40.566406 0.636719 "/>
<path style=" stroke:none;fill-rule:nonzero;fill:rgb(100%,100%,100%);fill-opacity:1;" d="M 48.414063 16.09375 C 49.085938 16.15625 49.761719 16.199219 50.433594 16.261719 C 51.414063 19.773438 52.316406 23.308594 53.265625 26.832031 C 52.503906 26.773438 51.75 26.699219 50.988281 26.632813 C 50.753906 25.703125 50.527344 24.765625 50.324219 23.828125 C 49.222656 23.6875 48.117188 23.59375 47.011719 23.53125 C 46.601563 24.398438 46.195313 25.265625 45.8125 26.144531 C 45.0625 26.09375 44.308594 26.039063 43.5625 25.96875 C 45.1875 22.683594 46.796875 19.386719 48.414063 16.09375 "/>
<path style=" stroke:none;fill-rule:nonzero;fill:rgb(100%,100%,100%);fill-opacity:1;" d="M 35.351563 16.710938 C 36.042969 16.621094 36.734375 16.519531 37.429688 16.433594 C 37.792969 19.1875 38.109375 21.941406 38.472656 24.691406 C 40.085938 24.546875 41.695313 24.320313 43.304688 24.140625 C 43.390625 24.789063 43.449219 25.441406 43.523438 26.089844 C 41.21875 26.296875 38.925781 26.621094 36.628906 26.886719 C 36.1875 23.496094 35.769531 20.105469 35.351563 16.710938 "/>
<path style=" stroke:none;fill-rule:nonzero;fill:rgb(100%,100%,100%);fill-opacity:1;" d="M 53.535156 26.65625 C 54.53125 23.375 55.542969 20.097656 56.507813 16.808594 C 57.203125 17.007813 57.902344 17.222656 58.601563 17.421875 C 59.308594 19.945313 59.957031 22.480469 60.710938 24.988281 C 61.332031 22.855469 61.972656 20.730469 62.644531 18.613281 C 63.300781 18.804688 63.957031 18.988281 64.617188 19.175781 C 63.636719 22.464844 62.617188 25.742188 61.636719 29.035156 C 60.960938 28.835938 60.285156 28.644531 59.613281 28.441406 C 58.921875 25.894531 58.191406 23.355469 57.46875 20.816406 C 56.832031 22.964844 56.175781 25.101563 55.515625 27.238281 C 54.851563 27.042969 54.195313 26.847656 53.535156 26.65625 "/>
<path style=" stroke:none;fill-rule:nonzero;fill:rgb(100%,100%,100%);fill-opacity:1;" d="M 27.929688 18.785156 C 28.582031 18.613281 29.230469 18.421875 29.882813 18.253906 C 32.054688 21.199219 34.179688 24.179688 36.355469 27.121094 C 35.613281 27.328125 34.867188 27.535156 34.128906 27.742188 C 33.574219 26.933594 33.015625 26.132813 32.4375 25.339844 C 31.386719 25.644531 30.328125 25.929688 29.277344 26.226563 C 29.207031 27.179688 29.257813 28.160156 29.027344 29.09375 C 28.386719 29.414063 27.664063 29.519531 26.976563 29.714844 C 27.285156 26.070313 27.59375 22.425781 27.929688 18.785156 "/>
<path style=" stroke:none;fill-rule:nonzero;fill:rgb(0%,44.299316%,73.298645%);fill-opacity:1;" d="M 47.890625 21.632813 C 48.292969 20.820313 48.695313 20 49.09375 19.183594 C 49.316406 20.058594 49.527344 20.9375 49.734375 21.816406 C 49.117188 21.757813 48.503906 21.691406 47.890625 21.632813 "/>
<path style=" stroke:none;fill-rule:nonzero;fill:rgb(100%,100%,100%);fill-opacity:1;" d="M 64.699219 21.183594 C 64.976563 20.597656 65.257813 20.011719 65.539063 19.421875 C 68.140625 20.632813 70.742188 21.824219 73.355469 23.007813 C 73.082031 23.589844 72.8125 24.175781 72.539063 24.753906 C 71.542969 24.328125 70.554688 23.882813 69.566406 23.433594 C 68.386719 25.949219 67.199219 28.460938 66.011719 30.972656 C 65.375 30.683594 64.730469 30.410156 64.09375 30.128906 C 65.246094 27.585938 66.46875 25.074219 67.648438 22.546875 C 66.664063 22.097656 65.679688 21.644531 64.699219 21.183594 "/>
<path style=" stroke:none;fill-rule:nonzero;fill:rgb(100%,100%,100%);fill-opacity:1;" d="M 16.257813 23.566406 C 18.867188 22.367188 21.488281 21.191406 24.097656 19.976563 C 24.375 20.5625 24.648438 21.152344 24.921875 21.738281 C 23.941406 22.195313 22.957031 22.660156 21.96875 23.101563 C 23.164063 25.625 24.371094 28.140625 25.527344 30.679688 C 24.890625 30.976563 24.246094 31.253906 23.597656 31.53125 C 22.4375 29.003906 21.234375 26.492188 20.050781 23.972656 C 19.074219 24.433594 18.09375 24.875 17.113281 25.316406 C 16.824219 24.730469 16.542969 24.148438 16.257813 23.566406 "/>
<path style=" stroke:none;fill-rule:nonzero;fill:rgb(0%,43.899536%,73.298645%);fill-opacity:1;" d="M 29.640625 21.394531 C 30.15625 22.164063 30.691406 22.929688 31.222656 23.699219 C 30.628906 23.84375 30.035156 23.992188 29.445313 24.140625 C 29.519531 23.226563 29.585938 22.308594 29.640625 21.394531 "/>
<path style=" stroke:none;fill-rule:nonzero;fill:rgb(100%,100%,100%);fill-opacity:1;" d="M 66.65625 31.070313 C 69.695313 28.964844 72.691406 26.796875 75.742188 24.707031 C 76.304688 25.074219 76.863281 25.449219 77.429688 25.820313 C 76.523438 29.363281 75.640625 32.910156 74.726563 36.445313 C 74.09375 36.019531 73.464844 35.582031 72.835938 35.148438 C 73.097656 34.222656 73.359375 33.296875 73.601563 32.367188 C 72.695313 31.765625 71.785156 31.175781 70.886719 30.5625 C 70.09375 31.148438 69.292969 31.71875 68.496094 32.304688 C 67.886719 31.890625 67.269531 31.480469 66.65625 31.070313 "/>
<path style=" stroke:none;fill-rule:nonzero;fill:rgb(100%,100%,100%);fill-opacity:1;" d="M 12.199219 26.589844 C 12.773438 26.222656 13.351563 25.859375 13.933594 25.511719 C 16.847656 27.738281 19.816406 29.90625 22.757813 32.105469 C 22.105469 32.519531 21.453125 32.933594 20.792969 33.339844 C 20.035156 32.734375 19.273438 32.140625 18.511719 31.539063 C 17.589844 32.125 16.667969 32.710938 15.75 33.296875 C 15.976563 34.246094 16.203125 35.195313 16.433594 36.144531 C 15.816406 36.546875 15.199219 36.941406 14.574219 37.339844 C 13.800781 33.75 12.949219 30.179688 12.199219 26.589844 "/>
<path style=" stroke:none;fill-rule:nonzero;fill:rgb(0%,44.299316%,73.298645%);fill-opacity:1;" d="M 72.570313 29.332031 C 73.3125 28.800781 74.050781 28.261719 74.804688 27.746094 C 74.578125 28.605469 74.339844 29.46875 74.097656 30.328125 C 73.589844 29.992188 73.074219 29.671875 72.570313 29.332031 "/>
<path style=" stroke:none;fill-rule:nonzero;fill:rgb(0%,43.899536%,72.898865%);fill-opacity:1;" d="M 14.640625 28.632813 C 15.355469 29.179688 16.074219 29.730469 16.785156 30.289063 C 16.28125 30.632813 15.773438 30.96875 15.265625 31.304688 C 15.0625 30.410156 14.851563 29.523438 14.640625 28.632813 "/>
<g clip-path="url(#clip1)" clip-rule="nonzero">
<path style=" stroke:none;fill-rule:nonzero;fill:rgb(13.299561%,12.199402%,12.199402%);fill-opacity:1;" d="M 74.269531 40.429688 C 76.894531 37.238281 79.539063 34.058594 82.195313 30.894531 C 89.386719 47.25 91.675781 65.429688 90.359375 83.128906 C 89.300781 96.28125 86.113281 109.382813 80.007813 121.175781 C 75.441406 129.859375 69.160156 138.046875 60.496094 143.082031 C 55.847656 145.785156 50.46875 147.402344 45.046875 147.261719 C 37.945313 147.300781 31.125 144.3125 25.648438 139.988281 C 18.511719 134.332031 13.285156 126.664063 9.40625 118.566406 C 12.570313 114.703125 15.789063 110.886719 18.960938 107.035156 C 26.289063 112.617188 35.484375 115.808594 44.757813 115.894531 C 52.980469 116.0625 61.222656 113.800781 68.214844 109.539063 C 75.066406 105.378906 80.734375 99.335938 84.378906 92.253906 C 87.882813 85.484375 89.523438 77.773438 89.039063 70.183594 C 88.40625 58.847656 82.929688 47.902344 74.269531 40.429688 "/>
</g>
<path style=" stroke:none;fill-rule:nonzero;fill:rgb(0%,43.899536%,73.298645%);fill-opacity:1;" d="M 29.558594 37.027344 C 36.722656 33.882813 44.84375 33.011719 52.546875 34.382813 C 59.03125 35.554688 65.21875 38.351563 70.300781 42.496094 C 67.949219 45.300781 65.617188 48.128906 63.277344 50.945313 C 61.324219 50.511719 59.386719 49.96875 57.546875 49.179688 C 52.5625 46.902344 47.15625 45.703125 41.765625 44.820313 C 39.976563 44.597656 38.183594 44.164063 36.375 44.339844 C 32.925781 44.761719 29.703125 47.582031 29.539063 51.128906 C 29.519531 52.378906 28.292969 53.023438 27.59375 53.910156 C 26.003906 55.789063 24.339844 57.667969 23.242188 59.882813 C 22.835938 61.355469 22.851563 63.085938 21.679688 64.242188 C 19.367188 66.664063 17.1875 69.214844 14.785156 71.550781 C 14.480469 71.976563 14.515625 72.574219 14.734375 73.03125 C 15.335938 73.910156 16.351563 74.425781 16.910156 75.335938 C 17.265625 76.242188 17.078125 77.234375 16.996094 78.167969 C 16.503906 78.609375 16.214844 79.195313 16.234375 79.859375 C 16.535156 79.9375 17.136719 80.097656 17.441406 80.179688 C 17.117188 80.171875 16.480469 80.144531 16.160156 80.132813 C 16.511719 82.328125 16.792969 84.933594 15.210938 86.75 C 14.652344 88.132813 16.085938 89.222656 17.160156 89.824219 C 20.675781 91.667969 24.695313 92.253906 28.601563 92.722656 C 25.800781 96.074219 23.019531 99.441406 20.230469 102.796875 C 12.988281 96.929688 7.988281 88.421875 6.457031 79.300781 C 5.195313 71.972656 6.09375 64.292969 9.070313 57.464844 C 12.949219 48.421875 20.433594 40.957031 29.558594 37.027344 "/>
<path style=" stroke:none;fill-rule:nonzero;fill:rgb(13.299561%,12.199402%,12.199402%);fill-opacity:1;" d="M 65.25 51.273438 C 67.386719 48.722656 69.496094 46.152344 71.632813 43.601563 C 73.605469 45.433594 75.542969 47.339844 77.097656 49.542969 C 73.628906 51.8125 69.226563 51.8125 65.25 51.273438 "/>
<path style=" stroke:none;fill-rule:nonzero;fill:rgb(13.299561%,12.199402%,12.199402%);fill-opacity:1;" d="M 38.796875 50.441406 C 43.480469 49.355469 48.480469 49.625 53.054688 51.09375 C 55.867188 51.917969 58.632813 52.921875 61.234375 54.269531 C 66.484375 56.597656 72.480469 57.976563 78.191406 56.65625 C 77.257813 58.90625 74.691406 59.773438 72.433594 60.042969 C 67.089844 60.582031 61.722656 59.097656 56.984375 56.734375 C 54.09375 55.089844 50.988281 53.839844 47.820313 52.824219 C 43.152344 51.40625 37.886719 51.53125 33.457031 53.65625 C 34.507813 51.742188 36.796875 51 38.796875 50.441406 "/>
<path style=" stroke:none;fill-rule:nonzero;fill:rgb(13.299561%,12.199402%,12.199402%);fill-opacity:1;" d="M 35.902344 60.710938 C 36.589844 58.335938 39.199219 57.371094 41.445313 57.039063 C 46.78125 56.324219 52.210938 57.550781 57.132813 59.5625 C 60.652344 61.21875 64.382813 62.425781 68.1875 63.269531 C 72.5625 64.046875 77.316406 63.667969 81.238281 61.480469 C 80.359375 63.605469 77.902344 64.441406 75.851563 65.0625 C 72.023438 66.0625 67.96875 66.140625 64.085938 65.429688 C 60.355469 64.65625 56.65625 63.683594 53.15625 62.1875 C 47.699219 60.222656 41.601563 59.121094 35.902344 60.710938 "/>
<path style=" stroke:none;fill-rule:nonzero;fill:rgb(13.299561%,12.199402%,12.199402%);fill-opacity:1;" d="M 82.160156 65.953125 C 82.632813 65.429688 82.800781 64.738281 82.925781 64.066406 L 83.167969 64.0625 C 83.339844 66.605469 81.601563 68.800781 79.566406 70.160156 C 75.839844 72.636719 71.257813 73.519531 66.824219 73.609375 C 62.695313 73.59375 58.472656 72.871094 54.824219 70.902344 C 53.296875 70.113281 52.140625 68.746094 50.503906 68.152344 C 46.257813 66.460938 41.570313 66.261719 37.050781 66.539063 C 37.453125 66.023438 37.90625 65.515625 38.535156 65.261719 C 40.300781 64.484375 42.277344 64.375 44.179688 64.355469 C 48.855469 64.523438 53.589844 65.5 57.703125 67.746094 C 59.101563 68.707031 60.773438 69.128906 62.414063 69.484375 C 67.042969 70.410156 71.90625 70.324219 76.46875 69.09375 C 78.554688 68.480469 80.726563 67.644531 82.160156 65.953125 "/>
<path style=" stroke:none;fill-rule:nonzero;fill:rgb(13.299561%,12.199402%,12.199402%);fill-opacity:1;" d="M 82.652344 72.226563 C 82.832031 71.695313 83.152344 71.230469 83.488281 70.785156 C 84.070313 73.253906 82.292969 75.484375 80.308594 76.75 C 76.15625 79.4375 71.054688 80.21875 66.175781 80.21875 C 61.363281 80.046875 56.1875 79.132813 52.515625 75.824219 C 49.683594 73.863281 46.089844 73.367188 42.703125 73.550781 C 45.484375 71.855469 49.039063 71.691406 52.113281 72.648438 C 53.539063 73.050781 54.550781 74.207031 55.898438 74.777344 C 57.929688 75.707031 60.132813 76.214844 62.34375 76.546875 C 66.179688 77.09375 70.105469 77.078125 73.9375 76.511719 C 76.246094 76.132813 78.570313 75.5625 80.621094 74.414063 C 81.484375 73.898438 82.355469 73.222656 82.652344 72.226563 "/>
<path style=" stroke:none;fill-rule:nonzero;fill:rgb(13.299561%,12.199402%,12.199402%);fill-opacity:1;" d="M 71.34375 83.402344 C 75.863281 83.046875 79.96875 80.964844 83.921875 78.929688 C 81.921875 82.191406 78.257813 84.015625 74.660156 85.0625 C 69.054688 86.59375 62.933594 86.507813 57.449219 84.535156 C 55.535156 83.878906 53.890625 82.660156 51.988281 81.972656 C 49.847656 81.160156 47.578125 80.71875 45.296875 80.535156 C 48.800781 79.5625 52.695313 79.46875 56.121094 80.777344 C 60.640625 83.484375 66.183594 83.886719 71.34375 83.402344 "/>
<path style=" stroke:none;fill-rule:nonzero;fill:rgb(13.299561%,12.199402%,12.199402%);fill-opacity:1;" d="M 53.148438 85.691406 C 62.164063 90.273438 73.351563 91.007813 82.664063 86.847656 C 79.222656 90.859375 74.015625 93.398438 68.660156 93.40625 C 62.609375 93.570313 56.671875 90.507813 53.148438 85.691406 "/>
<path style=" stroke:none;fill-rule:nonzero;fill:rgb(13.299561%,12.199402%,12.199402%);fill-opacity:1;" d="M 77.898438 92.730469 C 78.382813 92.730469 78.867188 92.726563 79.355469 92.726563 C 75.210938 99.53125 68.957031 105.085938 61.605469 108.34375 C 54.058594 111.722656 45.410156 112.632813 37.304688 110.9375 C 31.628906 109.765625 26.226563 107.324219 21.613281 103.867188 C 24.511719 100.332031 27.449219 96.832031 30.359375 93.304688 C 31.285156 93.808594 32.1875 94.382813 32.851563 95.210938 C 37.078125 100.105469 40.886719 105.335938 44.53125 110.664063 C 52.289063 110.777344 60.09375 108.613281 66.523438 104.304688 C 71.109375 101.320313 74.972656 97.304688 77.898438 92.730469 "/>
<path style=" stroke:none;fill-rule:nonzero;fill:rgb(100%,100%,100%);fill-opacity:1;" d="M 54.875 118.433594 C 57.753906 117.621094 60.640625 116.820313 63.515625 115.992188 C 63.679688 116.597656 63.851563 117.199219 64.023438 117.804688 C 62.28125 121.257813 61.667969 125.246094 62.183594 129.0625 C 61.394531 129.273438 60.601563 129.496094 59.816406 129.726563 C 59.226563 126.109375 59.980469 122.398438 61.253906 119 C 59.335938 119.53125 57.417969 120.074219 55.5 120.609375 C 55.285156 119.882813 55.078125 119.160156 54.875 118.433594 "/>
<path style=" stroke:none;fill-rule:nonzero;fill:rgb(100%,100%,100%);fill-opacity:1;" d="M 29.90625 116.359375 C 30.507813 116.546875 31.109375 116.722656 31.710938 116.917969 C 30.429688 120.871094 29.167969 124.828125 27.871094 128.773438 C 27.101563 128.535156 26.335938 128.296875 25.5625 128.058594 C 26.402344 125.4375 27.265625 122.824219 28.089844 120.199219 C 27.21875 119.925781 26.347656 119.648438 25.476563 119.386719 C 25.675781 118.769531 25.871094 118.152344 26.078125 117.542969 C 26.820313 117.667969 27.558594 117.90625 28.324219 117.847656 C 29.097656 117.691406 29.464844 116.917969 29.90625 116.359375 "/>
<path style=" stroke:none;fill-rule:nonzero;fill:rgb(100%,100%,100%);fill-opacity:1;" d="M 34.464844 120.054688 C 36.277344 117.707031 40.667969 118.332031 41.675781 121.128906 C 42.335938 122.96875 42.085938 124.992188 41.613281 126.84375 C 41.101563 128.59375 40.160156 130.519531 38.277344 131.136719 C 36.582031 131.621094 34.4375 131.128906 33.484375 129.570313 C 32.976563 128.773438 32.953125 127.816406 33.015625 126.910156 C 33.761719 126.996094 34.511719 127.09375 35.257813 127.179688 C 35.214844 128.097656 35.59375 129.285156 36.734375 129.242188 C 38.160156 129.449219 38.777344 127.910156 39.242188 126.875 C 37.710938 127.351563 35.867188 127.226563 34.648438 126.109375 C 32.980469 124.558594 33.125 121.757813 34.464844 120.054688 "/>
<path style=" stroke:none;fill-rule:nonzero;fill:rgb(100%,100%,100%);fill-opacity:1;" d="M 47.890625 119.242188 C 49.300781 118.808594 51 119 52.066406 120.074219 C 53.34375 121.328125 53.722656 123.171875 53.886719 124.875 C 54.007813 126.6875 53.914063 128.675781 52.820313 130.214844 C 51.40625 132.246094 47.941406 132.300781 46.46875 130.304688 C 45.140625 128.515625 44.90625 126.175781 45 124.023438 C 45.105469 122.125 45.863281 119.878906 47.890625 119.242188 "/>
<path style=" stroke:none;fill-rule:nonzero;fill:rgb(13.299561%,12.199402%,12.199402%);fill-opacity:1;" d="M 37.070313 120.878906 C 38.113281 120.441406 39.582031 121.167969 39.625 122.351563 C 39.726563 123.382813 39.363281 124.800781 38.164063 125.035156 C 37.296875 125.171875 36.230469 124.855469 35.90625 123.976563 C 35.605469 122.871094 35.910156 121.382813 37.070313 120.878906 "/>
<path style=" stroke:none;fill-rule:nonzero;fill:rgb(13.299561%,12.199402%,12.199402%);fill-opacity:1;" d="M 48.78125 121.238281 C 50.03125 120.804688 50.925781 122.035156 51.148438 123.089844 C 51.554688 124.847656 51.773438 126.785156 51.132813 128.515625 C 50.800781 129.5625 49.304688 130.027344 48.523438 129.179688 C 47.453125 127.824219 47.414063 125.980469 47.375 124.339844 C 47.464844 123.230469 47.578125 121.726563 48.78125 121.238281 "/>
</g>
</svg>
