<?xml version="1.0" encoding="UTF-8" standalone="no"?>
<!-- Created with Inkscape (http://www.inkscape.org/) -->

<svg
   xmlns:dc="http://purl.org/dc/elements/1.1/"
   xmlns:cc="http://creativecommons.org/ns#"
   xmlns:rdf="http://www.w3.org/1999/02/22-rdf-syntax-ns#"
   xmlns:svg="http://www.w3.org/2000/svg"
   xmlns="http://www.w3.org/2000/svg"
   xmlns:sodipodi="http://sodipodi.sourceforge.net/DTD/sodipodi-0.dtd"
   xmlns:inkscape="http://www.inkscape.org/namespaces/inkscape"
   version="1.1"
   id="svg1366"
   xml:space="preserve"
   width="4096"
   height="4096"
   viewBox="0 0 4096 4096"
   sodipodi:docname="borussia-monchengladbach-logo.svg"
   inkscape:export-filename="C:\Users\suitedoalex\sites\borussia-monchengladbach-logo-0.png"
   inkscape:export-xdpi="96.000008"
   inkscape:export-ydpi="96.000008"
   inkscape:version="0.92.2 (5c3e80d, 2017-08-06)"><metadata
     id="metadata1372"><rdf:RDF><cc:Work
         rdf:about=""><dc:format>image/svg+xml</dc:format><dc:type
           rdf:resource="http://purl.org/dc/dcmitype/StillImage" /><dc:title></dc:title></cc:Work></rdf:RDF></metadata><defs
     id="defs1370"><clipPath
       clipPathUnits="userSpaceOnUse"
       id="clipPath1382"><path
         d="m 374.145,223.37 h 43.654 v 49.89 h -43.654 z"
         id="path1380"
         inkscape:connector-curvature="0" /></clipPath><clipPath
       clipPathUnits="userSpaceOnUse"
       id="clipPath1396"><path
         d="M 0,0 H 467.717 V 666.142 H 0 Z"
         id="path1394"
         inkscape:connector-curvature="0" /></clipPath><clipPath
       clipPathUnits="userSpaceOnUse"
       id="clipPath1436"><path
         d="M 0,0 H 467.717 V 666.142 H 0 Z"
         id="path1434"
         inkscape:connector-curvature="0" /></clipPath><clipPath
       clipPathUnits="userSpaceOnUse"
       id="clipPath1644"><path
         d="m 392.882,594.141 h 56.127 v 56.127 h -56.127 z"
         id="path1642"
         inkscape:connector-curvature="0" /></clipPath><clipPath
       clipPathUnits="userSpaceOnUse"
       id="clipPath1680"><path
         d="m 27.104,154.772 h 110.551 v 93.543 H 27.104 Z"
         id="path1678"
         inkscape:connector-curvature="0" /></clipPath><clipPath
       clipPathUnits="userSpaceOnUse"
       id="clipPath1688"><path
         d="M 26.0513,249.31 H 138.707 V 153.972 H 26.0513 Z"
         id="path1686"
         inkscape:connector-curvature="0" /></clipPath><clipPath
       clipPathUnits="userSpaceOnUse"
       id="clipPath1692"><path
         d="m 27.578,155.499 h 109.601 v 92.285 H 27.578 Z"
         id="path1690"
         inkscape:connector-curvature="0" /></clipPath><clipPath
       clipPathUnits="userSpaceOnUse"
       id="clipPath1696"><path
         d="m 27.578,155.499 h 109.601 v 92.285 H 27.578 Z"
         id="path1694"
         inkscape:connector-curvature="0" /></clipPath><clipPath
       clipPathUnits="userSpaceOnUse"
       id="clipPath1700"><path
         d="m 27.578,155.499 h 109.601 v 92.285 H 27.578 Z"
         id="path1698"
         inkscape:connector-curvature="0" /></clipPath><clipPath
       clipPathUnits="userSpaceOnUse"
       id="clipPath1704"><path
         d="m 27.578,155.499 h 109.601 v 92.285 H 27.578 Z"
         id="path1702"
         inkscape:connector-curvature="0" /></clipPath><clipPath
       clipPathUnits="userSpaceOnUse"
       id="clipPath1708"><path
         d="m 27.578,155.499 h 109.601 v 92.285 H 27.578 Z"
         id="path1706"
         inkscape:connector-curvature="0" /></clipPath><clipPath
       clipPathUnits="userSpaceOnUse"
       id="clipPath1712"><path
         d="m 27.578,155.499 h 109.601 v 92.285 H 27.578 Z"
         id="path1710"
         inkscape:connector-curvature="0" /></clipPath><clipPath
       clipPathUnits="userSpaceOnUse"
       id="clipPath1716"><path
         d="m 27.578,155.499 h 109.601 v 92.285 H 27.578 Z"
         id="path1714"
         inkscape:connector-curvature="0" /></clipPath><clipPath
       clipPathUnits="userSpaceOnUse"
       id="clipPath1720"><path
         d="m 27.578,155.499 h 109.601 v 92.285 H 27.578 Z"
         id="path1718"
         inkscape:connector-curvature="0" /></clipPath><clipPath
       clipPathUnits="userSpaceOnUse"
       id="clipPath1724"><path
         d="m 27.578,155.499 h 109.601 v 92.285 H 27.578 Z"
         id="path1722"
         inkscape:connector-curvature="0" /></clipPath><clipPath
       clipPathUnits="userSpaceOnUse"
       id="clipPath1728"><path
         d="m 27.578,155.499 h 109.601 v 92.285 H 27.578 Z"
         id="path1726"
         inkscape:connector-curvature="0" /></clipPath><clipPath
       clipPathUnits="userSpaceOnUse"
       id="clipPath1732"><path
         d="m 27.578,155.499 h 109.601 v 92.285 H 27.578 Z"
         id="path1730"
         inkscape:connector-curvature="0" /></clipPath><clipPath
       clipPathUnits="userSpaceOnUse"
       id="clipPath1736"><path
         d="m 27.578,155.499 h 109.601 v 92.285 H 27.578 Z"
         id="path1734"
         inkscape:connector-curvature="0" /></clipPath><clipPath
       clipPathUnits="userSpaceOnUse"
       id="clipPath1740"><path
         d="m 27.578,155.499 h 109.601 v 92.285 H 27.578 Z"
         id="path1738"
         inkscape:connector-curvature="0" /></clipPath><clipPath
       clipPathUnits="userSpaceOnUse"
       id="clipPath2202"><path
         d="M 126.425,129.827 H 236.977 V 223.37 H 126.425 Z"
         id="path2200"
         inkscape:connector-curvature="0" /></clipPath><clipPath
       clipPathUnits="userSpaceOnUse"
       id="clipPath2210"><path
         d="M 125.373,224.366 H 238.029 V 129.027 H 125.373 Z"
         id="path2208"
         inkscape:connector-curvature="0" /></clipPath><clipPath
       clipPathUnits="userSpaceOnUse"
       id="clipPath2214"><path
         d="m 126.9,130.554 h 109.601 v 92.284 H 126.9 Z"
         id="path2212"
         inkscape:connector-curvature="0" /></clipPath><clipPath
       clipPathUnits="userSpaceOnUse"
       id="clipPath2218"><path
         d="m 126.9,130.554 h 109.601 v 92.284 H 126.9 Z"
         id="path2216"
         inkscape:connector-curvature="0" /></clipPath><clipPath
       clipPathUnits="userSpaceOnUse"
       id="clipPath2222"><path
         d="m 126.9,130.554 h 109.601 v 92.284 H 126.9 Z"
         id="path2220"
         inkscape:connector-curvature="0" /></clipPath><clipPath
       clipPathUnits="userSpaceOnUse"
       id="clipPath2226"><path
         d="m 126.9,130.554 h 109.601 v 92.284 H 126.9 Z"
         id="path2224"
         inkscape:connector-curvature="0" /></clipPath><clipPath
       clipPathUnits="userSpaceOnUse"
       id="clipPath2230"><path
         d="m 126.9,130.554 h 109.601 v 92.284 H 126.9 Z"
         id="path2228"
         inkscape:connector-curvature="0" /></clipPath><clipPath
       clipPathUnits="userSpaceOnUse"
       id="clipPath2234"><path
         d="m 126.9,130.554 h 109.601 v 92.284 H 126.9 Z"
         id="path2232"
         inkscape:connector-curvature="0" /></clipPath><clipPath
       clipPathUnits="userSpaceOnUse"
       id="clipPath2238"><path
         d="m 126.9,130.554 h 109.601 v 92.284 H 126.9 Z"
         id="path2236"
         inkscape:connector-curvature="0" /></clipPath><clipPath
       clipPathUnits="userSpaceOnUse"
       id="clipPath2242"><path
         d="m 126.9,130.554 h 109.601 v 92.284 H 126.9 Z"
         id="path2240"
         inkscape:connector-curvature="0" /></clipPath><clipPath
       clipPathUnits="userSpaceOnUse"
       id="clipPath2246"><path
         d="m 126.9,130.554 h 109.601 v 92.284 H 126.9 Z"
         id="path2244"
         inkscape:connector-curvature="0" /></clipPath><clipPath
       clipPathUnits="userSpaceOnUse"
       id="clipPath2250"><path
         d="m 126.9,130.554 h 109.601 v 92.284 H 126.9 Z"
         id="path2248"
         inkscape:connector-curvature="0" /></clipPath><clipPath
       clipPathUnits="userSpaceOnUse"
       id="clipPath2254"><path
         d="m 126.9,130.554 h 109.601 v 92.284 H 126.9 Z"
         id="path2252"
         inkscape:connector-curvature="0" /></clipPath><clipPath
       clipPathUnits="userSpaceOnUse"
       id="clipPath2258"><path
         d="m 126.9,130.554 h 109.601 v 92.284 H 126.9 Z"
         id="path2256"
         inkscape:connector-curvature="0" /></clipPath><clipPath
       clipPathUnits="userSpaceOnUse"
       id="clipPath2262"><path
         d="m 126.9,130.554 h 109.601 v 92.284 H 126.9 Z"
         id="path2260"
         inkscape:connector-curvature="0" /></clipPath><clipPath
       clipPathUnits="userSpaceOnUse"
       id="clipPath2720"><path
         d="M 0,666.142 H 467.717 V 0 H 0 Z"
         id="path2718"
         inkscape:connector-curvature="0" /></clipPath></defs><sodipodi:namedview
     pagecolor="#ffffff"
     bordercolor="#666666"
     borderopacity="1"
     objecttolerance="10"
     gridtolerance="10"
     guidetolerance="10"
     inkscape:pageopacity="0"
     inkscape:pageshadow="2"
     inkscape:window-width="669"
     inkscape:window-height="416"
     id="namedview1368"
     showgrid="false"
     inkscape:zoom="0.046231697"
     inkscape:cx="1213.6464"
     inkscape:cy="1766.1244"
     inkscape:window-x="548"
     inkscape:window-y="218"
     inkscape:window-maximized="0"
     inkscape:current-layer="g1374" /><g
     id="g1374"
     inkscape:groupmode="layer"
     inkscape:label="budesliga-logo"
     transform="matrix(1.3333333,0,0,-1.3333333,0,4096)"><g
       id="g1390"
       transform="matrix(39.302015,0,0,39.302015,-15012.243,-22917.4)"
       inkscape:export-filename="C:\Users\suitedoalex\sites\borussia-monchengladbach-logo-4.png"
       inkscape:export-xdpi="19.483641"
       inkscape:export-ydpi="19.483641"><g
         id="g1392"
         clip-path="url(#clipPath1396)"><text
           transform="matrix(1,0,0,-1,-420.0945,622.4882)"
           style="font-variant:normal;font-weight:300;font-stretch:normal;font-size:33px;font-family:'ApexDFL LightTabular';-inkscape-font-specification:ApexDFLLightTabular;writing-mode:lr-tb;fill:#9b9d9d;fill-opacity:1;fill-rule:nonzero;stroke:none"
           id="text1400"><tspan
             x="0 19.271999 36.662998 48.18 64.712997 79.463997 94.214996 101.178 117.249 122.133 146.718 164.10899 180.642 195.52499 211.992 228.69 245.22301 262.548 269.51099 285.582 303.20401 320.82599 336.897 351.78"
             y="0"
             sodipodi:role="line"
             id="tspan1398">Borussia Mönchengladbach</tspan></text>
</g></g><g
       id="g1602"
       transform="matrix(43.534282,0,0,43.534282,1535.1729,2715.9532)"
       inkscape:export-filename="C:\Users\suitedoalex\sites\borussia-monchengladbach-logo-4.png"
       inkscape:export-xdpi="19.483641"
       inkscape:export-ydpi="19.483641"><path
         d="m 0,0 -16.958,-27.132 v -10e-4 l 16.977,-27.075 16.977,27.076 z"
         style="fill:#ffffff;fill-opacity:1;fill-rule:nonzero;stroke:none"
         id="path1604"
         inkscape:connector-curvature="0" /></g><g
       id="g1606"
       transform="matrix(43.534282,0,0,43.534282,1535.2164,2640.961)"
       inkscape:export-filename="C:\Users\suitedoalex\sites\borussia-monchengladbach-logo-4.png"
       inkscape:export-xdpi="19.483641"
       inkscape:export-ydpi="19.483641"><path
         d="M 0,0 -15.881,-25.409 0.018,-50.766 15.917,-25.409 Z"
         style="fill:#000000;fill-opacity:1;fill-rule:nonzero;stroke:none"
         id="path1608"
         inkscape:connector-curvature="0" /></g><g
       id="g1610"
       transform="matrix(43.534282,0,0,43.534282,1535.3426,2462.3442)"
       inkscape:export-filename="C:\Users\suitedoalex\sites\borussia-monchengladbach-logo-4.png"
       inkscape:export-xdpi="19.483641"
       inkscape:export-ydpi="19.483641"><path
         d="M 0,0 -13.314,-21.302 0.015,-42.56 13.344,-21.302 Z"
         style="fill:#ffffff;fill-opacity:1;fill-rule:nonzero;stroke:none"
         id="path1612"
         inkscape:connector-curvature="0" /></g><g
       id="g1614"
       transform="matrix(43.534282,0,0,43.534282,1535.4036,2380.4387)"
       inkscape:export-filename="C:\Users\suitedoalex\sites\borussia-monchengladbach-logo-4.png"
       inkscape:export-xdpi="19.483641"
       inkscape:export-ydpi="19.483641"><path
         d="m 0,0 -12.137,-19.419 12.151,-19.378 12.15,19.378 z"
         style="fill:#000000;fill-opacity:1;fill-rule:nonzero;stroke:none"
         id="path1616"
         inkscape:connector-curvature="0" /></g><g
       id="g1618"
       transform="matrix(43.534282,0,0,43.534282,1535.4472,2314.7934)"
       inkscape:export-filename="C:\Users\suitedoalex\sites\borussia-monchengladbach-logo-4.png"
       inkscape:export-xdpi="19.483641"
       inkscape:export-ydpi="19.483641"><path
         d="M 0,0 -11.194,-17.909 0.013,-35.781 11.219,-17.909 Z"
         style="fill:#ffffff;fill-opacity:1;fill-rule:nonzero;stroke:none"
         id="path1620"
         inkscape:connector-curvature="0" /></g><g
       id="g1622"
       transform="matrix(43.534282,0,0,43.534282,1535.2164,2332.6816)"
       inkscape:export-filename="C:\Users\suitedoalex\sites\borussia-monchengladbach-logo-4.png"
       inkscape:export-xdpi="19.483641"
       inkscape:export-ydpi="19.483641"><path
         d="M 0,0 -3.372,-5.058 H 3.484 Z"
         style="fill:#000000;fill-opacity:1;fill-rule:nonzero;stroke:none"
         id="path1624"
         inkscape:connector-curvature="0" /></g><g
       id="g1626"
       transform="matrix(43.534282,0,0,43.534282,1799.4826,1142.7723)"
       inkscape:export-filename="C:\Users\suitedoalex\sites\borussia-monchengladbach-logo-4.png"
       inkscape:export-xdpi="19.483641"
       inkscape:export-ydpi="19.483641"><path
         d="M 0,0 H -11.977 L -16.46,7.092 H 4.278 Z"
         style="fill:#000000;fill-opacity:1;fill-rule:nonzero;stroke:none"
         id="path1628"
         inkscape:connector-curvature="0" /></g><g
       id="g1630"
       transform="matrix(43.534282,0,0,43.534282,1282.9918,1936.7417)"
       inkscape:export-filename="C:\Users\suitedoalex\sites\borussia-monchengladbach-logo-4.png"
       inkscape:export-xdpi="19.483641"
       inkscape:export-ydpi="19.483641"><path
         d="M 0,0 H 11.703 L 15.98,-7.093 H -4.483 Z"
         style="fill:#000000;fill-opacity:1;fill-rule:nonzero;stroke:none"
         id="path1632"
         inkscape:connector-curvature="0" /></g><g
       id="g1634"
       transform="matrix(43.534282,0,0,43.534282,1535.2164,726.18389)"
       inkscape:export-filename="C:\Users\suitedoalex\sites\borussia-monchengladbach-logo-4.png"
       inkscape:export-xdpi="19.483641"
       inkscape:export-ydpi="19.483641"><path
         d="M 0,0 -3.487,5.605 H 3.712 Z"
         style="fill:#000000;fill-opacity:1;fill-rule:nonzero;stroke:none"
         id="path1636"
         inkscape:connector-curvature="0" /></g><g
       id="g1638"
       transform="matrix(43.534282,0,0,43.534282,-16794.253,-25550.683)"
       inkscape:export-filename="C:\Users\suitedoalex\sites\borussia-monchengladbach-logo-4.png"
       inkscape:export-xdpi="19.483641"
       inkscape:export-ydpi="19.483641"><g
         id="g1640"
         clip-path="url(#clipPath1644)"><g
           id="g1646"
           transform="translate(415.4294,613.2374)"><path
             d="m 0,0 h 8.426 c 2.411,0 4.542,2.301 4.542,5.469 0,1.789 -0.795,2.877 -1.217,3.464 0.483,0.5 1.208,1.165 1.208,3.704 0,1.813 -1.54,5.358 -5.137,5.358 H 0 Z"
             style="fill:#000000;fill-opacity:1;fill-rule:nonzero;stroke:none"
             id="path1648"
             inkscape:connector-curvature="0" /></g><g
           id="g1650"
           transform="translate(416.0504,613.8273)"><path
             d="m 0,0 h 7.012 c 2.253,0 4.654,1.463 4.654,4.831 0,1.671 -0.765,2.692 -1.33,3.468 0.452,0.467 1.39,1.21 1.39,3.582 0,1.693 -0.967,4.933 -5.077,4.933 H 0 Z"
             style="fill:#ffffff;fill-opacity:1;fill-rule:nonzero;stroke:none"
             id="path1652"
             inkscape:connector-curvature="0" /></g><g
           id="g1654"
           transform="translate(416.6593,614.4305)"><path
             d="m 0,0 h 5.919 c 2.599,0 4.533,1.357 4.533,4.484 0,1.551 -1.08,2.91 -1.632,3.219 0.491,0.296 1.689,1.124 1.689,3.326 0,1.761 -0.956,4.58 -4.771,4.58 H 0 Z"
             style="fill:#000000;fill-opacity:1;fill-rule:nonzero;stroke:none"
             id="path1656"
             inkscape:connector-curvature="0" /></g><g
           id="g1658"
           transform="translate(419.27,620.874)"><path
             d="m 0,0 h 3.01 c 0.996,0 1.938,-0.58 1.938,-1.639 0,-1.296 -0.906,-1.713 -2.11,-1.713 H 0 Z"
             style="fill:#ffffff;fill-opacity:1;fill-rule:nonzero;stroke:none"
             id="path1660"
             inkscape:connector-curvature="0" /></g><g
           id="g1662"
           transform="translate(419.27,627.1433)"><path
             d="M 0,0 H 2.589 C 3.45,0 4.646,-0.165 4.646,-1.616 4.646,-3.203 3.497,-3.3 2.589,-3.3 H 0 Z"
             style="fill:#ffffff;fill-opacity:1;fill-rule:nonzero;stroke:none"
             id="path1664"
             inkscape:connector-curvature="0" /></g><g
           id="g1666"
           transform="translate(419.8943,626.544)"><path
             d="m 0,0 h 1.877 c 0.608,0 1.452,-0.025 1.452,-1.05 0,-1.005 -0.811,-1.052 -1.452,-1.052 H 0 Z"
             style="fill:#000000;fill-opacity:1;fill-rule:nonzero;stroke:none"
             id="path1668"
             inkscape:connector-curvature="0" /></g><g
           id="g1670"
           transform="translate(419.9336,620.2765)"><path
             d="m 0,0 h 2.046 c 0.66,0 1.506,-0.385 1.506,-1.089 0,-0.92 -0.821,-1.069 -1.621,-1.069 H 0 Z"
             style="fill:#000000;fill-opacity:1;fill-rule:nonzero;stroke:none"
             id="path1672"
             inkscape:connector-curvature="0" /></g></g></g></g></svg>