<?xml version="1.0" encoding="UTF-8" standalone="no"?>
<!-- Created with Inkscape (http://www.inkscape.org/) -->

<svg
   xmlns:dc="http://purl.org/dc/elements/1.1/"
   xmlns:cc="http://creativecommons.org/ns#"
   xmlns:rdf="http://www.w3.org/1999/02/22-rdf-syntax-ns#"
   xmlns:svg="http://www.w3.org/2000/svg"
   xmlns="http://www.w3.org/2000/svg"
   xmlns:sodipodi="http://sodipodi.sourceforge.net/DTD/sodipodi-0.dtd"
   xmlns:inkscape="http://www.inkscape.org/namespaces/inkscape"
   width="700mm"
   height="700mm"
   viewBox="0 0 700 700"
   version="1.1"
   id="svg1091"
   inkscape:export-filename="C:\Users\suitedoalex\sites\cagliari-logo-0.png"
   inkscape:export-xdpi="148.63"
   inkscape:export-ydpi="148.63"
   inkscape:version="0.92.4 (5da689c313, 2019-01-14)"
   sodipodi:docname="cagliari-logo.svg">
  <defs
     id="defs1085">
    <clipPath
       clipPathUnits="userSpaceOnUse"
       id="clipPath206">
      <path
         d="m 378.272,473.386 h 85.346 V 576.64 h -85.346 z"
         id="path204"
         inkscape:connector-curvature="0" />
    </clipPath>
  </defs>
  <sodipodi:namedview
     id="base"
     pagecolor="#ffffff"
     bordercolor="#666666"
     borderopacity="1.0"
     inkscape:pageopacity="0.0"
     inkscape:pageshadow="2"
     inkscape:zoom="0.175"
     inkscape:cx="736.9165"
     inkscape:cy="1088.7984"
     inkscape:document-units="mm"
     inkscape:current-layer="layer1"
     showgrid="false"
     inkscape:window-width="1600"
     inkscape:window-height="837"
     inkscape:window-x="-8"
     inkscape:window-y="-8"
     inkscape:window-maximized="1" />
  <metadata
     id="metadata1088">
    <rdf:RDF>
      <cc:Work
         rdf:about="">
        <dc:format>image/svg+xml</dc:format>
        <dc:type
           rdf:resource="http://purl.org/dc/dcmitype/StillImage" />
        <dc:title></dc:title>
      </cc:Work>
    </rdf:RDF>
  </metadata>
  <g
     inkscape:label="Layer 1"
     inkscape:groupmode="layer"
     id="layer1"
     transform="translate(0,403)">
    <g
       transform="matrix(4.6398138,0,0,-4.6398138,-1603.1062,2382.9621)"
       id="g200"
       inkscape:export-xdpi="25.657274"
       inkscape:export-ydpi="25.657274">
      <g
         id="g202"
         clip-path="url(#clipPath206)">
        <g
           id="g208"
           transform="translate(420.9449,473.3858)">
          <path
             d="m 0,0 c 25.581,15.414 42.673,43.332 42.673,75.216 0,6.992 -0.847,13.783 -2.399,20.303 -12.417,4.984 -25.984,7.735 -40.2,7.735 -14.284,0 -27.904,-2.794 -40.368,-7.825 -1.539,-6.492 -2.379,-13.253 -2.379,-20.213 C -42.673,43.332 -25.581,15.414 0,0"
             style="fill:#ffffff;fill-opacity:1;fill-rule:nonzero;stroke:none"
             id="path210"
             inkscape:connector-curvature="0" />
        </g>
        <g
           id="g212"
           transform="translate(420.9449,575.0649)">
          <path
             d="m 0,0 c -13.821,-0.009 -26.999,-2.717 -39.061,-7.585 -1.492,-6.294 -2.305,-12.848 -2.305,-19.594 0,-30.908 16.568,-57.972 41.366,-72.913 z"
             style="fill:#b01028;fill-opacity:1;fill-rule:nonzero;stroke:none"
             id="path214"
             inkscape:connector-curvature="0" />
        </g>
        <g
           id="g216"
           transform="translate(421.0171,575.0654)">
          <path
             d="m 0,0 c -0.024,0 -0.048,0 -0.072,0 v -100.093 c 24.797,14.942 41.366,42.006 41.366,72.914 0,6.777 -0.82,13.36 -2.326,19.68 C 26.932,-2.667 13.781,0 0,0"
             style="fill:#082242;fill-opacity:1;fill-rule:nonzero;stroke:none"
             id="path218"
             inkscape:connector-curvature="0" />
        </g>
        <g
           id="g220"
           transform="translate(452.619,543.4608)">
          <path
             d="m 0,0 c 0,2.417 -0.111,4.809 -0.327,7.17 -9.872,3.086 -20.377,4.753 -31.275,4.753 -10.953,0 -21.508,-1.685 -31.424,-4.801 -0.213,-2.346 -0.322,-4.721 -0.322,-7.122 0,-25.652 12.449,-48.416 31.674,-62.662 C -12.449,-48.416 0,-25.652 0,0"
             style="fill:#ffffff;fill-opacity:1;fill-rule:nonzero;stroke:none"
             id="path222"
             inkscape:connector-curvature="0" />
        </g>
        <g
           id="g224"
           transform="translate(428.8247,510.2137)">
          <path
             d="M 0,0 C 0.076,0.099 0.205,0.276 0.447,0.522 0.688,0.768 1.042,1.086 1.568,1.465 2.093,1.844 2.79,2.286 3.72,2.784 4.277,3.081 4.821,3.347 5.343,3.584 5.866,3.822 6.369,4.031 6.842,4.216 7.316,4.401 7.76,4.561 8.169,4.7 8.578,4.84 8.951,4.958 9.28,5.06 c 0,0 0.086,0.33 -0.057,0.654 C 9.08,6.038 8.706,6.354 7.784,6.327 7.045,6.304 6.568,6.423 6.042,6.494 5.516,6.565 4.94,6.59 4.008,6.382 3.504,6.27 3.142,6.101 2.805,5.893 2.468,5.686 2.156,5.44 1.754,5.173 1.262,4.847 0.938,4.718 0.664,4.57 0.39,4.423 0.167,4.255 -0.116,3.851 -0.403,3.444 -0.418,3.129 -0.407,2.763 -0.396,2.397 -0.359,1.982 -0.537,1.377 -0.765,0.604 0,0 0,0 m 11.435,-0.07 c -0.048,0.082 -0.376,0.509 -0.45,0.689 -0.074,0.181 -0.488,0.59 -0.29,1.024 0.064,0.14 0.043,0.39 -0.016,0.676 0,0 -0.174,-0.021 -0.481,-0.066 C 9.891,2.208 9.451,2.137 8.921,2.038 8.392,1.937 7.774,1.808 7.108,1.643 6.441,1.479 5.727,1.279 5.01,1.04 4.054,0.722 3.227,0.405 2.549,0.124 1.872,-0.158 1.344,-0.403 0.985,-0.578 0.626,-0.754 0.436,-0.858 0.436,-0.858 0.145,-1.413 0.242,-1.713 0.461,-1.892 0.679,-2.07 1.106,-2.11 1.222,-2.192 1.757,-2.571 1.741,-3.532 1.597,-3.984 1.454,-4.436 1.198,-4.744 1.291,-4.918 c 0.094,-0.174 0.468,-0.365 0.894,-0.575 0.427,-0.211 0.905,-0.44 1.208,-0.69 0.629,-0.52 1.157,-0.953 1.64,-1.28 0.485,-0.328 0.924,-0.55 1.373,-0.649 0.449,-0.1 0.907,-0.077 1.43,0.088 0.52,0.162 -0.374,0.66 0.003,1.602 0.431,1.072 0.063,1.307 0.43,1.32 0.969,0.035 1.582,0.117 1.951,0.284 0.369,0.168 0.495,0.422 0.483,0.799 -0.016,0.49 -0.407,0.687 0.046,1.054 0.287,0.233 -0.081,0.592 -0.236,0.661 -0.01,0.004 0.362,0.038 0.391,0.45 0.008,0.117 -0.34,0.316 -0.185,0.534 0.129,0.179 0.601,0.085 0.828,0.281 0.211,0.182 0.156,0.576 -0.112,0.969"
             style="fill:#082242;fill-opacity:1;fill-rule:nonzero;stroke:none"
             id="path226"
             inkscape:connector-curvature="0" />
        </g>
        <g
           id="g228"
           transform="translate(428.2965,541.4545)">
          <path
             d="M 0,0 C 0.216,0.686 0.17,1.156 0.156,1.571 0.142,1.986 0.16,2.345 0.508,2.808 0.854,3.266 1.125,3.456 1.459,3.624 1.793,3.792 2.188,3.938 2.787,4.308 3.278,4.611 3.659,4.89 4.069,5.125 4.479,5.361 4.92,5.552 5.534,5.679 6.292,5.837 6.858,5.877 7.34,5.862 7.822,5.848 8.221,5.778 8.65,5.716 9.08,5.654 9.539,5.601 10.14,5.617 11.264,5.648 11.725,5.289 11.901,4.922 12.077,4.555 11.972,4.18 11.972,4.18 11.571,4.064 11.117,3.929 10.618,3.771 10.12,3.612 9.577,3.431 9,3.221 8.422,3.011 7.81,2.774 7.173,2.504 6.536,2.235 5.873,1.933 5.195,1.596 4.061,1.031 3.21,0.529 2.569,0.098 1.928,-0.332 1.497,-0.691 1.203,-0.971 0.908,-1.25 0.75,-1.451 0.659,-1.564 0.659,-1.564 -0.276,-0.877 0,0 M 14.768,-2.744 C 14.491,-3 13.917,-2.859 13.761,-3.063 c -0.189,-0.245 0.235,-0.473 0.226,-0.607 -0.033,-0.467 -0.489,-0.506 -0.477,-0.511 0.189,-0.077 0.642,-0.485 0.294,-0.749 -0.555,-0.419 -0.072,-0.64 -0.05,-1.197 0.017,-0.428 -0.137,-0.716 -0.588,-0.906 -0.45,-0.19 -1.2,-0.282 -2.385,-0.322 -0.449,-0.015 0.005,-0.283 -0.517,-1.501 -0.457,-1.068 0.635,-1.633 0.001,-1.818 -0.639,-0.186 -1.199,-0.213 -1.749,-0.1 -0.549,0.113 -1.088,0.365 -1.681,0.737 -0.594,0.371 -1.242,0.863 -2.012,1.453 -0.371,0.284 -0.958,0.544 -1.479,0.782 -0.522,0.239 -0.98,0.457 -1.096,0.654 -0.114,0.198 0.199,0.548 0.373,1.061 0.175,0.513 0.174,1.608 -0.465,2.033 -0.146,0.098 -0.662,0.139 -0.93,0.342 -0.268,0.202 -0.387,0.543 -0.033,1.173 0,0 0.232,0.119 0.67,0.318 0.438,0.198 1.083,0.477 1.91,0.797 0.827,0.32 1.836,0.679 3.002,1.041 0.875,0.271 1.746,0.497 2.559,0.684 0.813,0.187 1.568,0.335 2.214,0.448 0.646,0.114 1.182,0.194 1.557,0.245 0.375,0.051 0.589,0.074 0.589,0.074 0.073,-0.325 0.098,-0.609 0.021,-0.767 -0.24,-0.492 0.268,-0.957 0.359,-1.163 0.091,-0.205 0.493,-0.693 0.554,-0.781 0.304,-0.442 0.432,-0.896 0.14,-1.101"
             style="fill:#082242;fill-opacity:1;fill-rule:nonzero;stroke:none"
             id="path230"
             inkscape:connector-curvature="0" />
        </g>
        <g
           id="g232"
           transform="translate(402.3605,510.2137)">
          <path
             d="m 0,0 c 0.067,0.099 0.181,0.276 0.403,0.522 0.221,0.246 0.548,0.564 1.042,0.943 0.494,0.379 1.153,0.821 2.041,1.319 0.532,0.297 1.053,0.563 1.556,0.8 0.502,0.238 0.987,0.447 1.445,0.632 0.458,0.185 0.89,0.345 1.287,0.484 0.397,0.14 0.759,0.258 1.079,0.36 0,0 0.059,0.33 -0.111,0.654 C 8.571,6.038 8.17,6.354 7.25,6.327 6.513,6.304 6.027,6.423 5.495,6.494 4.963,6.565 4.385,6.59 3.47,6.382 2.977,6.27 2.629,6.101 2.309,5.893 1.99,5.686 1.699,5.44 1.319,5.173 0.854,4.847 0.54,4.718 0.279,4.57 0.017,4.423 -0.191,4.255 -0.44,3.851 -0.692,3.444 -0.682,3.129 -0.64,2.763 -0.598,2.397 -0.525,1.982 -0.653,1.377 -0.815,0.604 0,0 0,0 m 11.442,-0.07 c -0.055,0.082 -0.421,0.508 -0.51,0.689 -0.089,0.181 -0.538,0.59 -0.376,1.024 0.052,0.14 0.011,0.39 -0.072,0.676 0,0 -0.307,-0.037 -0.821,-0.12 C 9.148,2.116 8.429,1.986 7.604,1.797 6.78,1.608 5.852,1.358 4.922,1.04 3.993,0.722 3.193,0.405 2.539,0.124 1.885,-0.158 1.378,-0.403 1.034,-0.578 0.69,-0.754 0.508,-0.858 0.508,-0.858 0.264,-1.413 0.386,-1.713 0.62,-1.892 0.853,-2.07 1.281,-2.108 1.406,-2.192 1.99,-2.581 2.038,-3.532 1.933,-3.984 1.827,-4.436 1.598,-4.744 1.706,-4.918 c 0.108,-0.174 0.499,-0.365 0.943,-0.575 0.443,-0.211 0.941,-0.44 1.264,-0.69 0.673,-0.52 1.238,-0.953 1.749,-1.28 0.512,-0.328 0.97,-0.55 1.427,-0.649 0.458,-0.1 0.914,-0.077 1.423,0.088 0.506,0.162 -0.429,0.66 -0.131,1.602 0.34,1.072 -0.049,1.307 0.317,1.32 0.966,0.035 1.574,0.117 1.929,0.284 0.355,0.168 0.459,0.422 0.415,0.799 -0.057,0.491 -0.464,0.689 -0.044,1.054 0.266,0.231 -0.131,0.592 -0.292,0.661 -0.01,0.004 0.359,0.038 0.354,0.45 -0.002,0.117 -0.366,0.316 -0.228,0.534 0.113,0.178 0.593,0.087 0.803,0.281 0.194,0.181 0.108,0.576 -0.193,0.969"
             style="fill:#082242;fill-opacity:1;fill-rule:nonzero;stroke:none"
             id="path234"
             inkscape:connector-curvature="0" />
        </g>
        <g
           id="g236"
           transform="translate(398.9603,541.4545)">
          <path
             d="M 0,0 C 0.158,0.686 0.074,1.156 0.024,1.571 -0.025,1.986 -0.037,2.345 0.273,2.807 0.579,3.266 0.834,3.456 1.153,3.624 1.473,3.792 1.857,3.938 2.425,4.308 2.89,4.611 3.246,4.89 3.637,5.125 4.028,5.36 4.452,5.552 5.056,5.679 5.801,5.837 6.363,5.877 6.847,5.862 7.33,5.848 7.736,5.778 8.17,5.716 8.605,5.654 9.068,5.6 9.668,5.617 10.79,5.648 11.278,5.289 11.485,4.922 11.692,4.555 11.619,4.179 11.619,4.179 11.229,4.063 10.785,3.929 10.301,3.771 9.816,3.612 9.288,3.43 8.728,3.22 8.169,3.011 7.577,2.773 6.962,2.504 6.348,2.234 5.711,1.933 5.061,1.595 3.974,1.03 3.166,0.529 2.562,0.098 1.957,-0.332 1.556,-0.691 1.284,-0.971 1.013,-1.25 0.873,-1.451 0.791,-1.564 0.791,-1.564 -0.202,-0.877 0,0 M 15,-2.744 C 14.746,-3 14.157,-2.861 14.019,-3.063 c -0.167,-0.245 0.276,-0.474 0.277,-0.607 0.006,-0.467 -0.445,-0.506 -0.433,-0.511 0.195,-0.076 0.68,-0.487 0.355,-0.749 -0.517,-0.418 -0.017,-0.64 0.051,-1.197 0.053,-0.428 -0.074,-0.716 -0.509,-0.906 -0.435,-0.19 -1.177,-0.282 -2.358,-0.322 -0.448,-0.015 0.026,-0.284 -0.393,-1.501 -0.368,-1.068 0.775,-1.633 0.156,-1.818 -0.623,-0.186 -1.182,-0.213 -1.741,-0.1 -0.559,0.113 -1.119,0.365 -1.744,0.736 C 7.055,-9.666 6.365,-9.174 5.545,-8.584 5.15,-8.3 4.543,-8.041 4.001,-7.802 3.46,-7.563 2.983,-7.345 2.852,-7.148 2.72,-6.95 3.003,-6.6 3.134,-6.087 c 0.132,0.513 0.06,1.596 -0.636,2.033 -0.156,0.099 -0.674,0.139 -0.959,0.342 -0.285,0.202 -0.433,0.543 -0.131,1.172 0,0 0.221,0.12 0.642,0.319 0.422,0.198 1.043,0.477 1.843,0.797 0.8,0.319 1.779,0.679 2.915,1.041 0.852,0.271 1.703,0.497 2.501,0.684 0.796,0.187 1.54,0.335 2.176,0.448 0.637,0.114 1.166,0.193 1.536,0.244 0.371,0.051 0.583,0.075 0.583,0.075 0.101,-0.325 0.149,-0.609 0.086,-0.767 -0.199,-0.492 0.348,-0.958 0.456,-1.163 0.109,-0.205 0.552,-0.693 0.62,-0.781 0.344,-0.444 0.51,-0.896 0.234,-1.101"
             style="fill:#082242;fill-opacity:1;fill-rule:nonzero;stroke:none"
             id="path238"
             inkscape:connector-curvature="0" />
        </g>
        <g
           id="g240"
           transform="translate(395.4246,565.795)">
          <path
             d="M 0,0 C -0.367,-0.086 -0.715,-0.212 -1.044,-0.378 -1.374,-0.545 -1.685,-0.753 -1.98,-1.001 -2.275,-1.248 -2.553,-1.537 -2.815,-1.865 -3.078,-2.194 -3.307,-2.54 -3.503,-2.901 -3.699,-3.262 -3.86,-3.639 -3.99,-4.03 c -0.129,-0.392 -0.226,-0.799 -0.287,-1.22 -0.061,-0.413 -0.106,-0.723 -0.152,-1.032 -0.045,-0.31 -0.09,-0.62 -0.151,-1.033 -0.062,-0.422 -0.08,-0.807 -0.055,-1.154 0.026,-0.348 0.097,-0.657 0.212,-0.928 0.116,-0.272 0.277,-0.505 0.484,-0.702 0.207,-0.195 0.447,-0.34 0.719,-0.433 0.272,-0.094 0.577,-0.137 0.913,-0.13 0.337,0.008 0.705,0.065 1.105,0.169 0.398,0.105 0.772,0.235 1.122,0.392 0.35,0.157 0.675,0.34 0.975,0.551 0.301,0.21 0.576,0.448 0.825,0.713 0.25,0.265 0.463,0.544 0.64,0.84 0.177,0.295 0.317,0.606 0.422,0.933 0.104,0.327 0.173,0.67 0.205,1.03 C 2.984,-6.018 2.982,-6.011 2.978,-5.995 2.591,-6.078 2.302,-6.142 2.013,-6.206 1.724,-6.271 1.436,-6.336 1.052,-6.425 1.013,-6.762 0.942,-7.066 0.839,-7.337 0.735,-7.609 0.599,-7.848 0.43,-8.055 0.262,-8.262 0.057,-8.437 -0.182,-8.58 c -0.24,-0.143 -0.516,-0.254 -0.825,-0.334 -0.312,-0.08 -0.584,-0.091 -0.814,-0.032 -0.23,0.059 -0.42,0.189 -0.568,0.39 -0.148,0.201 -0.245,0.451 -0.291,0.749 -0.047,0.297 -0.044,0.643 0.009,1.037 0.056,0.412 0.097,0.721 0.139,1.03 0.041,0.308 0.082,0.617 0.138,1.029 0.052,0.389 0.141,0.755 0.267,1.097 0.126,0.341 0.288,0.659 0.487,0.952 0.199,0.293 0.418,0.529 0.658,0.71 0.24,0.18 0.502,0.305 0.786,0.372 0.317,0.075 0.587,0.095 0.811,0.059 0.225,-0.035 0.403,-0.125 0.533,-0.269 0.131,-0.144 0.221,-0.336 0.267,-0.575 0.047,-0.239 0.051,-0.526 0.013,-0.86 0.379,0.085 0.664,0.147 0.95,0.208 0.285,0.061 0.572,0.121 0.955,0.2 0.007,0.017 0.011,0.026 0.018,0.044 0.068,0.553 0.042,1.03 -0.076,1.432 -0.117,0.402 -0.328,0.729 -0.628,0.98 -0.2,0.168 -0.432,0.293 -0.695,0.377 C 1.689,0.099 1.395,0.14 1.069,0.138 0.743,0.136 0.387,0.09 0,0 m 8.659,1.494 c 0.306,0.045 0.612,0.09 1.022,0.147 0.128,-0.47 0.248,-0.911 0.364,-1.329 0.115,-0.419 0.225,-0.814 0.332,-1.195 0.107,-0.381 0.21,-0.748 0.312,-1.107 0.102,-0.359 0.202,-0.71 0.303,-1.061 0.1,-0.352 0.202,-0.703 0.306,-1.061 0.104,-0.359 0.211,-0.724 0.323,-1.104 0.112,-0.38 0.228,-0.775 0.353,-1.192 0.124,-0.416 0.255,-0.854 0.397,-1.321 -0.422,-0.054 -0.739,-0.095 -1.054,-0.138 -0.316,-0.043 -0.631,-0.087 -1.051,-0.149 -0.106,0.404 -0.185,0.707 -0.263,1.01 -0.078,0.303 -0.156,0.607 -0.26,1.011 C 9.263,-6.066 8.864,-6.129 8.492,-6.189 8.12,-6.249 7.775,-6.306 7.405,-6.369 7.034,-6.433 6.638,-6.503 6.164,-6.59 5.984,-7.045 5.849,-7.387 5.714,-7.729 5.579,-8.071 5.444,-8.413 5.263,-8.871 4.85,-8.952 4.541,-9.015 4.233,-9.078 3.924,-9.142 3.617,-9.206 3.207,-9.295 c 0.201,0.48 0.391,0.932 0.571,1.363 0.181,0.431 0.353,0.841 0.518,1.235 0.165,0.394 0.323,0.772 0.477,1.142 0.155,0.369 0.305,0.729 0.453,1.085 0.149,0.357 0.296,0.71 0.444,1.065 0.148,0.355 0.297,0.713 0.449,1.079 0.153,0.366 0.308,0.74 0.469,1.128 0.161,0.387 0.328,0.789 0.503,1.21 0.175,0.421 0.357,0.861 0.55,1.327 0.406,0.064 0.712,0.11 1.018,0.155 M 8.089,-4.72 c 0.384,0.063 0.768,0.124 1.282,0.201 C 9.248,-4.027 9.146,-3.617 9.052,-3.234 8.957,-2.851 8.87,-2.495 8.776,-2.111 8.683,-1.728 8.584,-1.317 8.466,-0.823 8.449,-0.826 8.441,-0.827 8.425,-0.83 8.265,-1.238 8.125,-1.596 7.994,-1.929 7.864,-2.261 7.743,-2.569 7.622,-2.877 7.501,-3.185 7.381,-3.493 7.249,-3.827 7.118,-4.162 6.976,-4.523 6.813,-4.935 c 0.509,0.089 0.892,0.153 1.276,0.215 m 9.557,1.148 c 0.368,0.027 0.644,0.046 0.92,0.064 0.276,0.018 0.553,0.036 0.921,0.057 -0.016,-0.359 -0.028,-0.627 -0.04,-0.896 -0.013,-0.269 -0.025,-0.537 -0.041,-0.896 -0.161,-0.146 -0.392,-0.274 -0.695,-0.387 -0.303,-0.113 -0.7,-0.186 -1.191,-0.223 -0.346,-0.026 -0.653,0.006 -0.92,0.098 -0.268,0.091 -0.496,0.243 -0.684,0.455 -0.189,0.212 -0.324,0.463 -0.405,0.754 -0.082,0.291 -0.11,0.621 -0.086,0.991 0.027,0.409 0.047,0.716 0.067,1.023 0.02,0.307 0.04,0.614 0.067,1.023 0.023,0.363 0.093,0.697 0.208,1.003 0.115,0.305 0.275,0.582 0.48,0.828 0.206,0.247 0.437,0.437 0.695,0.572 0.257,0.134 0.541,0.213 0.852,0.235 0.295,0.021 0.552,0 0.772,-0.061 0.22,-0.06 0.403,-0.161 0.549,-0.302 0.292,-0.281 0.446,-0.679 0.46,-1.192 0.386,0.021 0.675,0.036 0.965,0.049 0.289,0.014 0.579,0.027 0.964,0.041 0.006,0.017 0.009,0.025 0.015,0.041 C 21.528,0.172 21.454,0.591 21.3,0.961 21.146,1.332 20.912,1.654 20.597,1.926 20.387,2.107 20.146,2.255 19.871,2.368 19.596,2.481 19.287,2.559 18.946,2.603 18.605,2.646 18.231,2.654 17.823,2.626 17.43,2.598 17.058,2.53 16.707,2.42 16.357,2.311 16.027,2.16 15.718,1.969 15.409,1.778 15.121,1.547 14.853,1.275 14.585,1.003 14.356,0.709 14.168,0.395 13.979,0.081 13.83,-0.253 13.721,-0.608 c -0.11,-0.354 -0.179,-0.729 -0.208,-1.123 -0.03,-0.408 -0.052,-0.714 -0.075,-1.021 -0.022,-0.306 -0.044,-0.612 -0.074,-1.02 -0.029,-0.396 -0.012,-0.762 0.051,-1.098 0.064,-0.337 0.174,-0.643 0.332,-0.92 0.157,-0.277 0.362,-0.524 0.614,-0.743 0.252,-0.219 0.534,-0.394 0.846,-0.527 0.313,-0.132 0.655,-0.223 1.026,-0.271 0.372,-0.049 0.774,-0.056 1.205,-0.023 0.508,0.04 0.975,0.11 1.401,0.211 0.425,0.101 0.809,0.235 1.149,0.401 0.341,0.167 0.637,0.339 0.889,0.52 0.252,0.18 0.459,0.368 0.622,0.565 0.016,0.486 0.029,0.892 0.042,1.27 0.012,0.378 0.024,0.729 0.036,1.108 0.012,0.378 0.025,0.783 0.041,1.269 -0.52,-0.019 -0.953,-0.039 -1.357,-0.059 -0.405,-0.02 -0.78,-0.041 -1.184,-0.065 -0.405,-0.025 -0.838,-0.053 -1.357,-0.09 -0.015,-0.27 -0.025,-0.472 -0.037,-0.674 -0.011,-0.202 -0.022,-0.405 -0.037,-0.674 m 7.823,5.026 C 25.468,1.045 25.468,0.659 25.467,0.288 c -10e-4,-0.372 -10e-4,-0.729 -0.002,-1.081 0,-0.352 -0.001,-0.7 -0.002,-1.052 0,-0.353 -0.001,-0.71 -0.001,-1.081 -0.001,-0.372 -0.002,-0.757 -0.002,-1.167 -0.001,-0.409 -0.002,-0.843 -0.002,-1.31 0.472,0.002 0.887,0 1.27,-0.004 0.384,-0.003 0.738,-0.009 1.091,-0.016 0.354,-0.006 0.707,-0.015 1.09,-0.026 0.382,-0.011 0.794,-0.026 1.264,-0.045 0.011,-0.299 0.019,-0.523 0.026,-0.747 0.008,-0.225 0.017,-0.449 0.028,-0.748 -0.459,0.019 -0.881,0.034 -1.278,0.046 -0.396,0.012 -0.768,0.021 -1.126,0.028 -0.359,0.007 -0.706,0.012 -1.052,0.016 -0.347,0.003 -0.695,0.004 -1.055,0.004 -0.361,0 -0.734,-0.001 -1.132,-0.006 -0.399,-0.004 -0.822,-0.01 -1.283,-0.021 0.009,0.483 0.018,0.937 0.026,1.367 0.008,0.43 0.016,0.838 0.024,1.23 0.008,0.393 0.015,0.77 0.022,1.14 0.007,0.37 0.014,0.732 0.021,1.095 0.007,0.362 0.014,0.724 0.021,1.094 0.008,0.37 0.015,0.748 0.022,1.141 0.008,0.392 0.016,0.8 0.024,1.23 0.008,0.43 0.017,0.883 0.027,1.366 0.398,0.008 0.696,0.013 0.993,0.016 0.298,0.004 0.595,0.006 0.99,0.007 -0.001,-0.467 -0.002,-0.9 -0.002,-1.31 m 6.118,-8.509 c 0.427,-0.023 0.746,-0.043 1.065,-0.063 0.319,-0.021 0.637,-0.043 1.061,-0.075 -0.027,0.486 -0.052,0.941 -0.076,1.373 -0.024,0.433 -0.046,0.842 -0.068,1.236 -0.021,0.395 -0.042,0.774 -0.063,1.146 -0.02,0.371 -0.041,0.735 -0.061,1.1 -0.02,0.364 -0.039,0.728 -0.06,1.099 -0.02,0.372 -0.041,0.751 -0.063,1.146 -0.021,0.394 -0.044,0.804 -0.068,1.236 -0.024,0.432 -0.049,0.887 -0.076,1.373 -0.403,0.026 -0.705,0.044 -1.007,0.061 -0.303,0.017 -0.606,0.034 -1.008,0.054 0.022,-0.485 0.041,-0.939 0.06,-1.37 0.019,-0.431 0.037,-0.84 0.054,-1.233 0.017,-0.394 0.034,-0.772 0.05,-1.143 0.017,-0.371 0.032,-0.734 0.048,-1.097 0.016,-0.363 0.032,-0.727 0.048,-1.098 0.017,-0.37 0.033,-0.749 0.05,-1.142 0.017,-0.394 0.035,-0.802 0.054,-1.233 0.019,-0.432 0.039,-0.885 0.06,-1.37 m 7.243,9.064 c 0.309,-0.035 0.618,-0.071 1.03,-0.121 0.188,-0.456 0.368,-0.887 0.539,-1.299 0.171,-0.412 0.334,-0.804 0.492,-1.184 0.158,-0.379 0.31,-0.745 0.459,-1.102 0.15,-0.358 0.295,-0.708 0.44,-1.055 0.145,-0.347 0.289,-0.692 0.435,-1.04 0.146,-0.349 0.293,-0.701 0.444,-1.061 0.151,-0.361 0.307,-0.731 0.469,-1.116 0.161,-0.384 0.329,-0.784 0.506,-1.205 0.177,-0.421 0.362,-0.862 0.56,-1.33 -0.416,0.073 -0.728,0.126 -1.041,0.177 -0.312,0.052 -0.625,0.103 -1.044,0.168 -0.177,0.448 -0.31,0.782 -0.442,1.117 -0.133,0.335 -0.265,0.669 -0.44,1.114 -0.481,0.07 -0.883,0.124 -1.258,0.174 -0.375,0.05 -0.724,0.094 -1.101,0.14 -0.376,0.046 -0.779,0.094 -1.265,0.148 -0.11,-0.406 -0.195,-0.711 -0.278,-1.015 -0.084,-0.304 -0.168,-0.609 -0.282,-1.014 -0.424,0.045 -0.743,0.077 -1.063,0.108 -0.319,0.03 -0.639,0.06 -1.066,0.097 0.151,0.471 0.293,0.912 0.426,1.331 0.133,0.418 0.257,0.815 0.377,1.198 0.12,0.382 0.234,0.749 0.345,1.11 0.111,0.36 0.22,0.713 0.327,1.066 0.108,0.353 0.215,0.705 0.323,1.066 0.109,0.36 0.219,0.728 0.333,1.11 0.114,0.383 0.232,0.78 0.355,1.199 0.123,0.42 0.251,0.861 0.387,1.332 C 38.21,2.079 38.52,2.044 38.83,2.009 m 0.477,-6.149 c 0.388,-0.048 0.776,-0.098 1.292,-0.168 -0.159,0.403 -0.297,0.756 -0.425,1.083 -0.128,0.328 -0.246,0.629 -0.364,0.931 -0.117,0.301 -0.236,0.602 -0.363,0.928 -0.127,0.326 -0.264,0.676 -0.42,1.076 -0.016,0.002 -0.024,0.004 -0.041,0.006 -0.127,-0.494 -0.235,-0.906 -0.335,-1.29 -0.101,-0.384 -0.194,-0.74 -0.296,-1.124 -0.102,-0.384 -0.211,-0.795 -0.344,-1.288 0.52,-0.058 0.908,-0.105 1.296,-0.154 m 12.723,0.685 c -0.041,0.327 -0.114,0.641 -0.22,0.942 -0.105,0.301 -0.242,0.589 -0.411,0.863 -0.169,0.275 -0.371,0.535 -0.603,0.782 -0.233,0.247 -0.487,0.465 -0.764,0.655 -0.277,0.189 -0.578,0.35 -0.9,0.482 -0.323,0.132 -0.668,0.234 -1.037,0.307 -0.513,0.102 -0.943,0.184 -1.346,0.258 -0.402,0.074 -0.778,0.141 -1.183,0.212 -0.404,0.07 -0.84,0.144 -1.364,0.228 0.048,-0.498 0.093,-0.964 0.136,-1.407 0.043,-0.443 0.082,-0.863 0.121,-1.267 0.039,-0.405 0.077,-0.794 0.114,-1.175 0.036,-0.381 0.073,-0.754 0.108,-1.127 0.036,-0.373 0.072,-0.746 0.108,-1.127 0.037,-0.381 0.075,-0.77 0.114,-1.174 0.039,-0.405 0.079,-0.825 0.122,-1.268 0.042,-0.443 0.087,-0.909 0.135,-1.407 0.41,-0.076 0.717,-0.135 1.024,-0.195 0.306,-0.06 0.613,-0.121 1.02,-0.205 -0.05,0.484 -0.091,0.888 -0.13,1.265 -0.039,0.377 -0.076,0.726 -0.115,1.103 -0.038,0.377 -0.079,0.78 -0.129,1.265 0.345,-0.068 0.603,-0.121 0.862,-0.173 0.258,-0.053 0.516,-0.107 0.859,-0.18 0.233,-0.407 0.439,-0.765 0.629,-1.097 0.191,-0.333 0.368,-0.641 0.544,-0.949 0.177,-0.309 0.354,-0.618 0.546,-0.954 0.193,-0.336 0.402,-0.698 0.64,-1.114 0.402,-0.098 0.702,-0.174 1.002,-0.25 0.3,-0.077 0.6,-0.154 0.999,-0.26 -0.257,0.452 -0.481,0.845 -0.688,1.209 -0.208,0.365 -0.399,0.7 -0.589,1.035 -0.19,0.334 -0.379,0.668 -0.584,1.028 -0.205,0.361 -0.426,0.748 -0.676,1.189 0.393,0.051 0.727,0.175 0.995,0.381 0.284,0.219 0.481,0.505 0.591,0.859 0.109,0.354 0.132,0.776 0.07,1.266 m -2.205,-0.649 c -0.246,-0.246 -0.644,-0.307 -1.194,-0.19 -0.39,0.083 -0.684,0.143 -0.978,0.203 -0.294,0.059 -0.588,0.118 -0.982,0.193 -0.045,0.439 -0.084,0.804 -0.119,1.145 -0.035,0.341 -0.067,0.658 -0.102,0.999 -0.035,0.341 -0.073,0.707 -0.118,1.145 0.389,-0.071 0.68,-0.126 0.97,-0.182 0.29,-0.057 0.579,-0.113 0.964,-0.191 0.273,-0.056 0.516,-0.145 0.731,-0.267 0.214,-0.123 0.4,-0.279 0.557,-0.467 0.156,-0.189 0.28,-0.393 0.373,-0.61 0.093,-0.216 0.154,-0.447 0.182,-0.691 0.056,-0.479 -0.038,-0.841 -0.284,-1.087 m 4.202,3.317 c 0.275,-0.073 0.549,-0.146 0.911,-0.246 0.077,-0.52 0.149,-1.007 0.217,-1.47 0.068,-0.463 0.132,-0.902 0.194,-1.325 0.062,-0.422 0.122,-0.828 0.181,-1.226 0.059,-0.399 0.116,-0.789 0.173,-1.179 0.058,-0.39 0.115,-0.78 0.174,-1.178 0.058,-0.398 0.119,-0.804 0.181,-1.227 0.062,-0.422 0.125,-0.861 0.194,-1.324 0.068,-0.463 0.14,-0.95 0.217,-1.47 -0.393,0.119 -0.689,0.207 -0.985,0.293 -0.296,0.087 -0.592,0.172 -0.988,0.284 -0.07,0.515 -0.135,0.998 -0.197,1.457 -0.062,0.459 -0.12,0.894 -0.176,1.312 -0.057,0.419 -0.112,0.822 -0.165,1.216 -0.053,0.395 -0.105,0.781 -0.158,1.168 -0.052,0.386 -0.103,0.773 -0.156,1.167 -0.053,0.395 -0.108,0.797 -0.164,1.216 -0.057,0.419 -0.115,0.854 -0.177,1.313 -0.062,0.458 -0.128,0.942 -0.197,1.457 0.37,-0.094 0.646,-0.165 0.921,-0.238"
             style="fill:#ffffff;fill-opacity:1;fill-rule:nonzero;stroke:none"
             id="path242"
             inkscape:connector-curvature="0" />
        </g>
        <g
           id="g244"
           transform="translate(448.183,527.8151)">
          <path
             d="m 0,0 c -7.214,-0.533 -15.42,-0.973 -24.162,-1.057 0.084,7.551 0.13,15.533 0.13,23.791 0,0.336 -0.001,0.67 -0.001,1.005 -1.043,0.034 -2.089,0.055 -3.14,0.055 -1.144,0 -2.283,-0.023 -3.417,-0.063 0,-0.333 -0.001,-0.664 -0.001,-0.997 0,-8.257 0.046,-16.238 0.13,-23.788 -8.693,0.092 -16.848,0.533 -24.017,1.065 0.344,-1.815 0.757,-3.605 1.238,-5.368 6.886,-0.886 14.631,-1.526 22.855,-1.662 0.192,-13.425 0.511,-25.247 0.919,-34.493 0.732,-0.589 1.472,-1.169 2.228,-1.729 0.703,0.521 1.393,1.06 2.075,1.606 0.411,9.262 0.732,21.128 0.925,34.611 8.273,0.124 16.067,0.761 22.996,1.647 C -0.759,-3.611 -0.345,-1.818 0,0"
             style="fill:#b01028;fill-opacity:1;fill-rule:nonzero;stroke:none"
             id="path246"
             inkscape:connector-curvature="0" />
        </g>
      </g>
    </g>
  </g>
</svg>
