<?xml version="1.0" encoding="UTF-8" standalone="no"?>
<svg
   xmlns:dc="http://purl.org/dc/elements/1.1/"
   xmlns:cc="http://creativecommons.org/ns#"
   xmlns:rdf="http://www.w3.org/1999/02/22-rdf-syntax-ns#"
   xmlns:svg="http://www.w3.org/2000/svg"
   xmlns="http://www.w3.org/2000/svg"
   xmlns:sodipodi="http://sodipodi.sourceforge.net/DTD/sodipodi-0.dtd"
   xmlns:inkscape="http://www.inkscape.org/namespaces/inkscape"
   viewBox="0 0 700 700"
   width="700"
   height="700"
   version="1.1"
   id="svg24"
   sodipodi:docname="parma-logo.svg"
   inkscape:export-filename="G:\Users\suitedoalex\sites\parma-logo-0.png"
   inkscape:export-xdpi="561.73712"
   inkscape:export-ydpi="561.73712"
   inkscape:version="0.92.4 (5da689c313, 2019-01-14)">
  <metadata
     id="metadata30">
    <rdf:RDF>
      <cc:Work
         rdf:about="">
        <dc:format>image/svg+xml</dc:format>
        <dc:type
           rdf:resource="http://purl.org/dc/dcmitype/StillImage" />
        <dc:title></dc:title>
      </cc:Work>
    </rdf:RDF>
  </metadata>
  <defs
     id="defs28" />
  <sodipodi:namedview
     pagecolor="#ffffff"
     bordercolor="#666666"
     borderopacity="1"
     objecttolerance="10"
     gridtolerance="10"
     guidetolerance="10"
     inkscape:pageopacity="0"
     inkscape:pageshadow="2"
     inkscape:window-width="1600"
     inkscape:window-height="837"
     id="namedview26"
     showgrid="false"
     inkscape:zoom="0.3337544"
     inkscape:cx="312.84687"
     inkscape:cy="711.4266"
     inkscape:window-x="-8"
     inkscape:window-y="-8"
     inkscape:window-maximized="1"
     inkscape:current-layer="svg24" />
  <style
     id="style2">
		tspan { white-space:pre }
		.shp0 { fill: #ffffff } 
		.shp1 { fill: #2a3885 } 
		.shp2 { fill: #fcd206 } 
		.shp3 { fill: #1d1c1a } 
	</style>
  <g
     id="g22"
     transform="matrix(1.8292687,0,0,1.8292687,162.5091,121.34141)"
     inkscape:export-filename="G:\Users\suitedoalex\sites\parma-logo-4.png"
     inkscape:export-xdpi="102.40497"
     inkscape:export-ydpi="102.40497">
    <path
       class="shp0"
       d="m 0.03,62.03 c 0.03,56.98 0.04,62.21 0.2,64.37 0.09,1.29 0.22,2.96 0.27,3.7 0.06,0.74 0.22,2.34 0.35,3.55 0.13,1.21 0.36,3.01 0.5,4 0.14,0.99 0.35,2.34 0.46,3 0.11,0.66 0.33,1.9 0.5,2.75 0.16,0.85 0.41,2.07 0.55,2.7 0.14,0.63 0.45,1.96 0.7,2.95 0.24,0.99 0.58,2.29 0.75,2.9 0.17,0.61 0.59,2.02 0.94,3.15 0.36,1.13 0.91,2.79 1.23,3.7 0.33,0.91 0.93,2.51 1.35,3.55 0.41,1.05 1.13,2.76 1.6,3.8 0.46,1.05 1.36,2.94 1.99,4.2 0.63,1.27 1.64,3.18 2.23,4.25 0.6,1.07 1.41,2.49 1.8,3.15 0.39,0.66 1.07,1.76 1.5,2.45 0.43,0.69 1.41,2.2 2.18,3.35 0.77,1.16 1.99,2.91 2.7,3.9 0.72,0.99 1.79,2.45 2.4,3.25 0.61,0.8 1.71,2.22 2.46,3.15 0.74,0.93 1.91,2.38 2.6,3.2 0.69,0.83 2.16,2.54 3.27,3.8 1.11,1.27 2.66,3 3.44,3.85 0.79,0.85 2.53,2.7 3.86,4.1 1.34,1.4 3.51,3.57 4.81,4.81 1.31,1.24 2.94,2.77 3.63,3.4 0.69,0.63 1.91,1.71 2.7,2.4 0.8,0.69 2.01,1.72 2.7,2.3 0.69,0.57 2.02,1.65 2.95,2.4 0.94,0.74 2.44,1.92 3.35,2.61 0.91,0.69 2.75,2.04 4.1,3 1.35,0.96 3.26,2.29 4.25,2.95 0.99,0.66 2.54,1.67 3.45,2.25 0.91,0.57 2.44,1.52 3.4,2.1 0.96,0.58 2.49,1.48 3.4,2 0.91,0.53 2.51,1.42 3.55,1.98 1.05,0.57 3.18,1.67 4.75,2.46 1.57,0.78 3.84,1.87 5.05,2.42 1.21,0.55 2.85,1.26 3.65,1.59 0.8,0.33 1.97,0.81 2.6,1.06 0.63,0.24 1.81,0.68 2.63,0.96 0.81,0.28 1.55,0.51 1.65,0.51 0.09,0 0.8,-0.2 1.57,-0.46 0.77,-0.25 2.26,-0.8 3.3,-1.21 1.05,-0.41 2.37,-0.95 2.95,-1.2 0.58,-0.24 1.9,-0.83 2.95,-1.31 1.05,-0.47 3.23,-1.52 4.85,-2.33 1.62,-0.81 3.35,-1.69 3.85,-1.96 0.5,-0.27 1.3,-0.71 1.8,-0.98 0.5,-0.26 1.91,-1.07 3.15,-1.78 1.24,-0.72 3.13,-1.84 4.2,-2.5 1.07,-0.66 3.05,-1.93 4.4,-2.82 1.35,-0.88 3.22,-2.14 4.15,-2.8 0.94,-0.65 2.47,-1.75 3.4,-2.44 0.93,-0.69 2.6,-1.95 3.7,-2.81 1.1,-0.85 2.79,-2.2 3.75,-2.99 0.96,-0.8 2.38,-1.99 3.15,-2.65 0.77,-0.67 1.87,-1.64 2.45,-2.16 0.58,-0.52 2,-1.83 3.15,-2.91 1.16,-1.08 3.09,-2.97 4.3,-4.2 1.21,-1.23 3.06,-3.16 4.1,-4.29 1.05,-1.13 2.33,-2.52 2.86,-3.1 0.52,-0.58 1.58,-1.77 2.35,-2.65 0.77,-0.88 2.07,-2.41 2.9,-3.4 0.83,-0.99 2.24,-2.74 3.15,-3.9 0.91,-1.15 1.99,-2.55 2.4,-3.1 0.42,-0.55 1.23,-1.65 1.81,-2.45 0.57,-0.8 1.52,-2.15 2.1,-3 0.58,-0.85 1.55,-2.32 2.15,-3.25 0.6,-0.93 1.52,-2.42 2.05,-3.3 0.52,-0.88 1.42,-2.43 1.98,-3.45 0.57,-1.02 1.58,-2.95 2.25,-4.3 0.68,-1.35 1.56,-3.21 1.98,-4.15 0.41,-0.93 0.96,-2.22 1.22,-2.85 0.26,-0.63 0.71,-1.8 1.02,-2.6 0.3,-0.8 0.86,-2.37 1.24,-3.5 0.39,-1.13 0.94,-2.88 1.24,-3.9 0.3,-1.02 0.75,-2.66 1,-3.65 0.25,-0.99 0.63,-2.61 0.85,-3.6 0.21,-0.99 0.47,-2.27 0.58,-2.85 0.12,-0.58 0.3,-1.59 0.41,-2.25 0.12,-0.66 0.32,-1.94 0.45,-2.85 0.14,-0.91 0.36,-2.68 0.5,-3.95 0.14,-1.27 0.28,-2.55 0.31,-2.85 0.03,-0.3 0.16,-1.79 0.27,-3.3 l 0.22,-2.75 L 204.99,0 H 0 Z"
       id="path4"
       inkscape:connector-curvature="0"
       style="fill:#ffffff" />
    <path
       class="shp1"
       d="M 2.95,2.97 C 2.9,3 2.87,29 2.88,60.74 2.9,95.5 2.94,119.78 3,121.8 c 0.05,1.84 0.12,3.67 0.15,4.05 0.02,0.38 0.07,1.1 0.1,1.6 0.03,0.5 0.1,1.46 0.16,2.15 0.05,0.69 0.18,2.13 0.29,3.2 0.11,1.07 0.3,2.63 0.41,3.45 0.11,0.83 0.35,2.45 0.54,3.6 0.19,1.15 0.53,3 0.75,4.1 0.23,1.1 0.63,2.91 0.91,4.02 0.27,1.12 0.78,3.03 1.14,4.25 0.35,1.23 0.89,2.95 1.19,3.83 0.29,0.88 0.72,2.1 0.94,2.7 0.22,0.61 0.73,1.93 1.15,2.95 0.41,1.02 1.01,2.43 1.32,3.15 0.32,0.72 1.06,2.29 1.64,3.5 0.59,1.21 1.5,2.99 2.03,3.95 0.52,0.96 1.35,2.43 1.83,3.25 0.48,0.83 1.33,2.22 1.88,3.1 0.55,0.88 1.65,2.57 2.45,3.75 0.8,1.18 2.02,2.94 2.72,3.9 0.7,0.96 1.84,2.49 2.54,3.4 0.7,0.91 1.98,2.53 2.86,3.6 0.87,1.07 2.2,2.67 2.95,3.55 0.75,0.88 2.03,2.34 2.83,3.25 0.81,0.9 2.37,2.61 3.46,3.8 1.1,1.18 3.42,3.57 5.15,5.31 1.74,1.74 4.04,3.96 5.11,4.94 1.07,0.98 2.92,2.61 4.1,3.63 1.18,1.01 3.03,2.55 4.1,3.41 1.07,0.86 2.45,1.95 3.05,2.42 0.6,0.46 1.87,1.41 2.8,2.1 0.93,0.69 2.37,1.73 3.2,2.31 0.83,0.58 2.51,1.73 3.75,2.55 1.24,0.82 3.08,2.02 4.1,2.65 1.02,0.63 2.74,1.68 3.83,2.32 1.08,0.64 2.99,1.72 4.25,2.41 1.25,0.7 3.69,1.97 5.42,2.83 1.73,0.87 3.98,1.96 5,2.41 1.02,0.46 2.44,1.08 3.15,1.38 0.72,0.3 1.82,0.75 2.45,1 0.63,0.25 1.76,0.67 2.5,0.93 l 1.35,0.48 c 2.09,-0.74 3.4,-1.24 4.25,-1.58 0.85,-0.34 2.2,-0.9 3,-1.25 0.8,-0.35 1.97,-0.86 2.6,-1.15 0.63,-0.28 2.41,-1.14 3.95,-1.9 1.54,-0.76 3.75,-1.9 4.9,-2.53 1.16,-0.62 2.91,-1.6 3.9,-2.17 0.99,-0.57 2.7,-1.58 3.8,-2.25 1.1,-0.67 2.79,-1.73 3.75,-2.35 0.96,-0.62 2.45,-1.6 3.3,-2.18 0.85,-0.58 2.34,-1.62 3.3,-2.31 0.96,-0.68 2.63,-1.91 3.7,-2.71 1.07,-0.81 2.78,-2.14 3.8,-2.95 1.02,-0.82 2.55,-2.07 3.4,-2.79 0.85,-0.72 2.16,-1.85 2.9,-2.5 0.74,-0.66 1.89,-1.69 2.55,-2.3 0.66,-0.61 2.12,-1.99 3.24,-3.06 1.12,-1.07 3.12,-3.1 4.45,-4.5 1.34,-1.4 3.03,-3.2 3.76,-4 0.74,-0.8 2.13,-2.35 3.09,-3.46 0.97,-1.1 2.33,-2.67 3.02,-3.5 0.69,-0.82 1.92,-2.32 2.74,-3.34 0.82,-1.02 2.26,-2.88 3.2,-4.15 0.95,-1.27 2.39,-3.27 3.21,-4.45 0.82,-1.18 2.03,-3.01 2.7,-4.05 0.66,-1.05 1.67,-2.69 2.24,-3.65 0.56,-0.96 1.45,-2.54 1.98,-3.5 0.52,-0.96 1.25,-2.36 1.62,-3.1 0.37,-0.74 1,-2.05 1.4,-2.9 0.39,-0.85 1.01,-2.25 1.37,-3.1 0.36,-0.85 0.97,-2.36 1.35,-3.35 0.38,-0.99 1,-2.72 1.38,-3.85 0.38,-1.13 0.93,-2.9 1.24,-3.95 0.3,-1.05 0.75,-2.71 1,-3.7 0.25,-0.99 0.65,-2.77 0.9,-3.95 0.24,-1.18 0.6,-3.09 0.8,-4.25 0.19,-1.16 0.46,-2.95 0.6,-4 0.14,-1.04 0.32,-2.55 0.4,-3.35 0.08,-0.8 0.2,-1.97 0.25,-2.6 0.06,-0.63 0.13,-1.52 0.16,-1.97 0.03,-0.46 0.07,-1.18 0.1,-1.6 0.03,-0.43 0.1,-1.81 0.15,-3.08 0.06,-1.39 0.1,-25.75 0.1,-61.52 V 2.9 C 47.82,2.9 3,2.93 2.95,2.97 Z"
       id="path6"
       inkscape:connector-curvature="0"
       style="fill:#1b4094;fill-opacity:1" />
    <path
       class="shp2"
       d="M 10.6,26.6 V 42.2 H 194.5 V 11 H 10.6 Z"
       id="path8"
       inkscape:connector-curvature="0"
       style="fill:#fcd206" />
    <path
       class="shp1"
       d="m 111.75,15.26 c -0.38,0.08 -1.04,0.3 -1.45,0.5 -0.54,0.26 -0.94,0.55 -1.41,1.02 -0.36,0.37 -0.82,0.96 -1.01,1.32 -0.2,0.36 -0.47,1.01 -0.61,1.45 -0.14,0.44 -0.3,1.12 -0.36,1.5 -0.07,0.39 -0.16,1.26 -0.2,1.95 -0.05,0.69 -0.08,2.38 -0.08,3.75 0,1.38 0.03,3.04 0.08,3.7 0.05,0.66 0.13,1.51 0.19,1.9 0.06,0.39 0.2,1.03 0.31,1.42 0.1,0.4 0.34,1.03 0.52,1.4 0.2,0.43 0.54,0.9 0.92,1.28 0.39,0.39 0.87,0.73 1.35,0.97 0.41,0.21 1.04,0.46 1.4,0.55 0.48,0.13 1.03,0.18 2.1,0.18 1.19,-0.01 1.59,-0.05 2.23,-0.23 0.42,-0.12 1.05,-0.36 1.4,-0.53 0.36,-0.19 0.87,-0.57 1.22,-0.93 0.39,-0.39 0.74,-0.88 0.98,-1.36 0.2,-0.41 0.46,-1.11 0.57,-1.55 0.11,-0.44 0.21,-1.19 0.22,-1.66 l 0.03,-0.87 c -0.7,-0.09 -1.61,-0.12 -2.47,-0.12 -1.48,0 -1.59,0.01 -1.68,0.2 -0.05,0.11 -0.1,0.4 -0.1,0.65 0,0.25 -0.05,0.69 -0.11,0.98 -0.06,0.28 -0.22,0.73 -0.35,1 -0.15,0.29 -0.39,0.57 -0.66,0.75 -0.36,0.23 -0.52,0.27 -1.12,0.27 -0.53,0 -0.8,-0.06 -1.06,-0.21 -0.19,-0.11 -0.49,-0.38 -0.65,-0.6 -0.17,-0.21 -0.38,-0.64 -0.48,-0.94 -0.09,-0.3 -0.21,-0.98 -0.26,-1.5 -0.06,-0.52 -0.08,-2.93 -0.07,-5.35 0.03,-2.8 0.08,-4.64 0.15,-5.05 0.07,-0.36 0.21,-0.85 0.32,-1.1 0.11,-0.25 0.32,-0.58 0.47,-0.73 0.15,-0.16 0.44,-0.37 0.65,-0.48 0.23,-0.12 0.58,-0.19 0.92,-0.19 0.32,0 0.71,0.07 0.92,0.18 0.2,0.09 0.49,0.33 0.65,0.52 0.15,0.19 0.35,0.55 0.43,0.8 0.09,0.25 0.19,0.78 0.23,1.18 0.04,0.47 0.12,0.76 0.22,0.82 0.08,0.05 0.95,0.1 1.92,0.1 1.55,0 1.79,-0.02 1.94,-0.17 0.14,-0.15 0.16,-0.3 0.1,-0.98 -0.04,-0.44 -0.14,-1.11 -0.22,-1.5 -0.09,-0.38 -0.29,-0.97 -0.45,-1.3 -0.16,-0.33 -0.48,-0.82 -0.72,-1.1 -0.24,-0.27 -0.72,-0.69 -1.08,-0.93 -0.35,-0.24 -0.89,-0.52 -1.19,-0.64 -0.3,-0.11 -0.93,-0.26 -1.4,-0.34 -0.47,-0.08 -1.23,-0.14 -1.7,-0.13 -0.47,0 -1.17,0.07 -1.55,0.15 z m 44.45,-0.01 c -0.36,0.07 -0.85,0.21 -1.1,0.31 -0.25,0.1 -0.63,0.29 -0.85,0.43 -0.22,0.13 -0.62,0.45 -0.88,0.7 -0.27,0.25 -0.69,0.77 -0.92,1.16 -0.24,0.38 -0.57,1.11 -0.74,1.6 -0.16,0.5 -0.34,1.24 -0.4,1.65 -0.06,0.41 -0.15,1.44 -0.21,2.28 -0.05,0.83 -0.1,2.36 -0.1,3.4 0,1.03 0.05,2.52 0.1,3.32 0.06,0.8 0.15,1.79 0.21,2.2 0.06,0.41 0.19,1.09 0.31,1.5 0.11,0.41 0.36,1.06 0.57,1.45 0.2,0.39 0.61,0.95 0.91,1.25 0.34,0.34 0.84,0.69 1.3,0.92 0.41,0.21 1.04,0.46 1.4,0.55 0.47,0.13 1.04,0.18 2.05,0.18 1.05,0 1.59,-0.05 2.15,-0.19 0.41,-0.1 1.04,-0.33 1.4,-0.5 0.42,-0.2 0.88,-0.54 1.31,-0.96 0.5,-0.49 0.76,-0.86 1.07,-1.5 0.22,-0.47 0.47,-1.16 0.55,-1.55 0.09,-0.39 0.19,-1.08 0.22,-1.55 l 0.07,-0.85 c -0.75,-0.12 -1.67,-0.15 -2.52,-0.15 -0.85,0 -1.6,0.04 -1.66,0.08 -0.06,0.04 -0.12,0.34 -0.13,0.67 -0.01,0.33 -0.06,0.83 -0.12,1.1 -0.05,0.27 -0.22,0.72 -0.37,1 -0.15,0.27 -0.43,0.6 -0.62,0.72 -0.19,0.13 -0.53,0.26 -0.75,0.29 -0.22,0.04 -0.65,0 -0.95,-0.07 -0.42,-0.1 -0.65,-0.23 -0.97,-0.56 -0.33,-0.33 -0.48,-0.59 -0.63,-1.11 -0.11,-0.37 -0.24,-1.16 -0.3,-1.77 -0.05,-0.61 -0.1,-2.52 -0.1,-4.25 0,-1.73 0.05,-3.8 0.1,-4.6 0.06,-0.8 0.16,-1.67 0.24,-1.95 0.08,-0.27 0.3,-0.7 0.48,-0.95 0.19,-0.25 0.52,-0.55 0.74,-0.67 0.28,-0.16 0.56,-0.23 0.97,-0.23 0.34,0 0.72,0.07 0.94,0.18 0.2,0.09 0.49,0.33 0.65,0.52 0.16,0.19 0.38,0.64 0.49,1 0.1,0.36 0.19,0.86 0.19,1.13 0,0.29 0.06,0.53 0.15,0.62 0.12,0.12 0.5,0.15 2.13,0.15 h 1.97 c -0.12,-1.59 -0.22,-2.34 -0.31,-2.7 -0.08,-0.36 -0.28,-0.92 -0.45,-1.25 -0.16,-0.33 -0.5,-0.84 -0.77,-1.14 -0.26,-0.3 -0.74,-0.72 -1.07,-0.93 -0.33,-0.21 -0.85,-0.48 -1.15,-0.59 -0.3,-0.12 -0.93,-0.27 -1.4,-0.35 -0.47,-0.08 -1.23,-0.14 -1.7,-0.13 -0.47,0 -1.14,0.07 -1.5,0.14 z m 24.3,0 c -0.36,0.08 -0.97,0.3 -1.35,0.49 -0.38,0.2 -0.96,0.56 -1.27,0.81 -0.35,0.27 -0.76,0.73 -1.05,1.18 -0.26,0.39 -0.59,1.08 -0.74,1.52 -0.15,0.44 -0.34,1.23 -0.43,1.75 -0.09,0.52 -0.21,1.4 -0.28,1.95 -0.07,0.59 -0.12,2.25 -0.12,4.05 0,2.28 0.05,3.35 0.17,4.25 0.09,0.66 0.26,1.56 0.37,2 0.11,0.44 0.36,1.12 0.54,1.5 0.19,0.39 0.58,0.96 0.87,1.29 0.3,0.32 0.83,0.78 1.19,1.01 0.36,0.24 0.99,0.55 1.4,0.68 0.41,0.14 1.2,0.31 1.75,0.37 0.74,0.09 1.22,0.09 1.85,0.01 0.47,-0.06 1.12,-0.2 1.45,-0.31 0.33,-0.12 0.85,-0.34 1.15,-0.51 0.3,-0.16 0.77,-0.48 1.04,-0.72 0.27,-0.23 0.71,-0.73 0.98,-1.12 0.33,-0.47 0.58,-1 0.78,-1.62 0.17,-0.51 0.37,-1.32 0.45,-1.81 0.09,-0.48 0.2,-1.59 0.26,-2.47 0.07,-0.95 0.09,-2.74 0.05,-4.4 -0.03,-1.66 -0.12,-3.23 -0.21,-3.85 -0.08,-0.58 -0.25,-1.34 -0.36,-1.7 -0.12,-0.36 -0.38,-0.96 -0.57,-1.35 -0.23,-0.47 -0.57,-0.92 -1.03,-1.37 -0.48,-0.47 -0.91,-0.79 -1.41,-1.02 -0.4,-0.19 -1,-0.42 -1.33,-0.52 -0.39,-0.1 -1.11,-0.18 -2.05,-0.2 -1.03,-0.03 -1.64,0.01 -2.1,0.11 z M 33.05,15.72 c -0.02,0.07 -0.38,1.46 -0.79,3.08 -0.41,1.62 -1.62,6.44 -2.7,10.7 -1.07,4.26 -1.96,7.83 -1.98,7.93 -0.03,0.16 0.11,0.18 2.11,0.18 1.17,0 2.16,-0.03 2.2,-0.07 0.03,-0.03 0.29,-1.06 0.56,-2.28 l 0.51,-2.21 h 4.89 l 1,4.56 c 4.15,-0.01 4.3,-0.02 4.28,-0.18 -0.01,-0.1 -0.22,-1.06 -0.47,-2.13 -0.24,-1.07 -0.91,-3.95 -1.47,-6.4 -0.56,-2.45 -1.47,-6.43 -2.03,-8.85 l -1.01,-4.4 c -4.49,-0.05 -5.06,-0.03 -5.1,0.07 z m 54.06,0.26 c -0.06,0.2 -0.73,2.89 -1.51,5.97 -0.78,3.08 -1.97,7.82 -2.66,10.53 -0.68,2.7 -1.24,4.98 -1.24,5.04 0,0.1 0.47,0.12 2.17,0.08 l 2.18,-0.05 c 0.8,-3.41 1.04,-4.43 1.04,-4.47 C 87.1,33.03 88.2,33 89.55,33 90.9,33 92,33.03 92,33.08 c 0,0.04 0.21,1.04 0.46,2.22 0.26,1.18 0.49,2.18 0.53,2.23 0.03,0.04 1,0.07 2.15,0.08 1.15,0 2.1,-0.01 2.12,-0.03 0.02,-0.02 -0.41,-1.99 -0.95,-4.38 -0.55,-2.39 -1.59,-6.91 -2.3,-10.05 -0.72,-3.13 -1.41,-6.12 -1.54,-6.63 L 92.25,15.6 h -5.04 z m 39.14,-0.25 c -0.02,0.06 -0.9,3.54 -1.95,7.72 -1.05,4.18 -2.27,9.01 -2.71,10.73 -0.43,1.71 -0.79,3.2 -0.79,3.3 0,0.16 0.16,0.17 2.12,0.15 1.17,-0.01 2.14,-0.05 2.18,-0.08 0.03,-0.04 0.28,-1.07 0.56,-2.28 l 0.5,-2.22 4.89,-0.05 1,4.61 c 3.47,0.03 4.26,0 4.28,-0.06 0.02,-0.06 -0.2,-1.14 -0.49,-2.4 -0.29,-1.26 -0.78,-3.38 -1.08,-4.7 -0.31,-1.32 -1.1,-4.76 -1.76,-7.65 -0.66,-2.89 -1.3,-5.69 -1.43,-6.22 l -0.22,-0.98 c -4.46,0 -5.07,0.03 -5.1,0.13 z M 15.51,26.64 15.5,37.6 c 3.1,0 4.03,0.01 4.08,0.03 0.04,0.01 0.09,-1.89 0.12,-4.23 l 0.05,-4.25 c 3.05,-0.1 3.93,-0.18 4.35,-0.29 0.36,-0.09 1.01,-0.34 1.45,-0.55 0.58,-0.28 0.95,-0.55 1.35,-0.97 0.32,-0.34 0.72,-0.91 0.93,-1.34 0.2,-0.41 0.46,-1.11 0.57,-1.55 0.11,-0.44 0.22,-1.23 0.24,-1.75 0.02,-0.52 -0.01,-1.26 -0.06,-1.65 -0.05,-0.38 -0.2,-1.03 -0.34,-1.42 -0.13,-0.4 -0.4,-0.98 -0.59,-1.28 -0.19,-0.3 -0.56,-0.75 -0.82,-1 -0.27,-0.25 -0.77,-0.61 -1.13,-0.8 -0.36,-0.18 -1.03,-0.44 -1.5,-0.56 -0.79,-0.21 -1.12,-0.22 -4.77,-0.26 l -3.91,-0.05 z m 29.71,0.01 0.03,10.96 h 4.2 L 49.5,28.6 c 2.71,0.05 3.23,0.1 3.44,0.2 0.16,0.08 0.38,0.33 0.5,0.55 0.2,0.38 0.21,0.53 0.21,3.6 0.01,2.76 0.03,3.28 0.19,3.8 0.09,0.33 0.2,0.66 0.24,0.73 0.05,0.1 0.56,0.13 2.27,0.12 1.21,-0.01 2.21,-0.03 2.23,-0.06 0.01,-0.02 -0.09,-0.23 -0.23,-0.46 -0.13,-0.24 -0.32,-0.77 -0.4,-1.18 -0.13,-0.6 -0.15,-1.3 -0.13,-3.6 0.02,-2.45 0,-2.93 -0.14,-3.4 -0.09,-0.3 -0.32,-0.77 -0.5,-1.04 -0.2,-0.3 -0.57,-0.65 -0.96,-0.9 -0.34,-0.23 -0.62,-0.44 -0.62,-0.48 0,-0.05 0.15,-0.17 0.33,-0.27 0.17,-0.11 0.53,-0.42 0.8,-0.7 0.26,-0.28 0.59,-0.77 0.73,-1.08 0.14,-0.32 0.32,-0.87 0.4,-1.23 C 57.93,22.84 58,22.21 58,21.8 58,21.39 57.93,20.67 57.84,20.2 57.75,19.73 57.52,19.01 57.33,18.6 57.1,18.11 56.79,17.65 56.42,17.27 56.09,16.94 55.57,16.55 55.2,16.35 54.84,16.17 54.28,15.95 53.95,15.86 53.45,15.73 52.65,15.7 49.27,15.7 H 45.2 Z m 16.61,0 0.02,10.96 h 3.7 c 0.08,-10.46 0.12,-13.52 0.15,-13.54 0.03,-0.03 0.74,2.97 1.59,6.66 0.85,3.7 1.57,6.75 1.6,6.8 0.03,0.04 0.85,0.08 1.81,0.08 1.34,0 1.77,-0.03 1.82,-0.13 0.05,-0.07 0.37,-1.37 0.73,-2.88 0.36,-1.51 0.94,-3.96 1.3,-5.45 0.36,-1.49 0.74,-3.09 0.85,-3.57 0.14,-0.63 0.24,-0.88 0.35,-0.88 0.13,0 0.14,0.73 0.08,6.23 -0.03,3.42 -0.03,6.33 0,6.47 l 0.06,0.25 c 3.64,0 3.72,-0.01 3.77,-0.2 0.02,-0.11 0.03,-5.04 0.02,-10.95 L 79.65,15.75 74.2,15.7 c -0.15,0.58 -0.76,3.14 -1.45,6.05 -0.69,2.92 -1.41,5.95 -1.59,6.75 -0.18,0.8 -0.37,1.46 -0.42,1.48 -0.05,0.01 -0.28,-0.91 -0.52,-2.05 -0.24,-1.15 -0.96,-4.35 -1.61,-7.13 L 67.44,15.75 61.8,15.7 Z m 76.52,-10.88 c -0.05,0.03 -0.08,4.92 -0.07,10.85 0.01,5.93 0.04,10.84 0.07,10.9 0.04,0.1 1.2,0.13 5.43,0.11 l 5.37,-0.03 0.05,-3.5 h -6.6 V 15.7 c -3.23,0 -4.2,0.03 -4.25,0.07 z M 167.5,26.65 V 37.6 c 3.02,0 3.97,0.02 4.05,0.05 0.13,0.04 0.15,-1.22 0.15,-10.95 v -11 h -4.2 z"
       id="path10"
       inkscape:connector-curvature="0"
       style="fill:#1b4094;fill-opacity:1" />
    <path
       class="shp2"
       d="m 181.43,18.71 c -0.25,0.13 -0.56,0.4 -0.75,0.68 -0.18,0.25 -0.4,0.71 -0.49,1.01 -0.09,0.3 -0.2,0.84 -0.24,1.2 -0.04,0.36 -0.08,0.81 -0.1,1 -0.02,0.19 -0.06,1.72 -0.1,3.4 -0.05,1.91 -0.03,3.61 0.04,4.55 0.06,0.92 0.18,1.75 0.3,2.15 0.11,0.36 0.33,0.83 0.48,1.05 0.18,0.24 0.48,0.49 0.78,0.64 0.41,0.2 0.62,0.23 1.16,0.2 0.5,-0.03 0.75,-0.1 1.07,-0.32 0.23,-0.15 0.53,-0.44 0.66,-0.64 0.13,-0.21 0.31,-0.63 0.39,-0.93 0.09,-0.3 0.22,-1.04 0.28,-1.65 0.07,-0.64 0.13,-2.73 0.13,-5 0.01,-2.78 -0.03,-4.13 -0.12,-4.7 -0.07,-0.44 -0.2,-1 -0.27,-1.25 -0.08,-0.25 -0.29,-0.63 -0.47,-0.84 -0.18,-0.22 -0.51,-0.48 -0.73,-0.58 -0.24,-0.1 -0.64,-0.18 -1,-0.18 -0.42,0 -0.73,0.07 -1.02,0.21 z M 19.71,22.34 19.7,25.5 c 1.28,0 1.93,-0.05 2.28,-0.1 0.34,-0.06 0.79,-0.19 1,-0.29 0.2,-0.11 0.49,-0.32 0.64,-0.48 0.15,-0.15 0.36,-0.48 0.46,-0.73 0.11,-0.25 0.23,-0.7 0.26,-1 0.04,-0.3 0.02,-0.85 -0.04,-1.22 C 24.25,21.3 24.09,20.78 23.95,20.5 23.81,20.23 23.58,19.91 23.43,19.81 23.27,19.7 22.95,19.54 22.7,19.45 22.41,19.34 21.81,19.26 20.99,19.23 L 19.73,19.17 Z M 49.51,22.09 49.5,25 c 1.49,0 2.06,-0.06 2.4,-0.16 0.3,-0.09 0.74,-0.29 0.98,-0.45 0.29,-0.2 0.5,-0.46 0.7,-0.86 0.23,-0.5 0.27,-0.7 0.27,-1.43 -0.01,-0.64 -0.06,-0.96 -0.21,-1.3 -0.12,-0.25 -0.34,-0.6 -0.5,-0.79 -0.16,-0.18 -0.47,-0.43 -0.69,-0.54 -0.32,-0.17 -0.64,-0.22 -1.66,-0.25 l -1.27,-0.04 z m -14.08,0.32 c -0.06,0.13 -0.44,1.68 -0.84,3.44 -0.39,1.76 -0.73,3.26 -0.75,3.33 -0.03,0.09 0.34,0.12 1.61,0.12 1.52,0 1.65,-0.01 1.6,-0.17 -0.02,-0.1 -0.22,-1.01 -0.44,-2.03 -0.21,-1.02 -0.51,-2.5 -0.67,-3.3 -0.15,-0.8 -0.3,-1.49 -0.33,-1.54 -0.04,-0.05 -0.12,0.02 -0.18,0.15 z m 54.12,-0.08 c -0.03,0.06 -0.36,1.51 -0.75,3.22 -0.39,1.71 -0.75,3.25 -0.8,3.43 l -0.1,0.32 c 2.48,0 3.22,-0.03 3.24,-0.07 0.02,-0.05 -0.2,-1.2 -0.48,-2.58 -0.29,-1.37 -0.6,-2.94 -0.7,-3.47 -0.09,-0.54 -0.21,-0.98 -0.26,-0.98 -0.06,0 -0.13,0.06 -0.15,0.13 z m 38.29,3.39 -0.81,3.53 c 2.34,0.04 3.08,0.03 3.15,0 0.09,-0.04 0.07,-0.25 -0.09,-0.92 -0.11,-0.49 -0.44,-2.05 -0.72,-3.47 -0.29,-1.43 -0.56,-2.61 -0.62,-2.63 -0.06,-0.02 -0.45,1.51 -0.91,3.49 z"
       id="path12"
       inkscape:connector-curvature="0"
       style="fill:#fcd206" />
    <path
       class="shp3"
       d="M 45.96,49.25 C 45.93,49.33 45.9,62.47 45.9,78.45 V 107.5 H 10.45 c 0.12,13.06 0.17,17.23 0.2,17.7 0.03,0.47 0.07,1.17 0.1,1.55 0.02,0.38 0.05,0.91 0.05,1.18 v 0.47 h 35.1 v 72.75 c 4.69,4.66 6.66,6.58 7.4,7.26 0.75,0.68 2.05,1.85 2.9,2.59 0.85,0.75 2.09,1.81 2.75,2.36 0.66,0.55 1.88,1.54 2.7,2.21 0.83,0.66 2.29,1.79 3.25,2.52 0.96,0.72 1.81,1.32 1.88,1.31 0.09,0 0.12,-9.17 0.12,-45.5 v -45.5 h 35.3 V 107.5 H 66.9 C 66.9,62.47 66.88,49.33 66.85,49.25 66.81,49.12 65.56,49.1 56.41,49.1 c -9.15,0 -10.4,0.02 -10.45,0.15 z"
       id="path14"
       inkscape:connector-curvature="0"
       style="fill:#231f20;fill-opacity:1" />
    <path
       class="shp0"
       d="M 10.6,78.35 V 107.5 H 45.9 L 45.95,49.2 H 10.6 Z m 56.28,0 0.02,29.15 h 35.3 V 49.2 H 66.85 Z"
       id="path16"
       inkscape:connector-curvature="0"
       style="fill:#ffffff" />
    <path
       class="shp2"
       d="m 116.8,140.88 c 0,50.42 0.03,91.7 0.07,91.74 0.04,0.04 0.46,-0.13 0.93,-0.39 0.47,-0.25 1.48,-0.8 2.25,-1.21 0.77,-0.41 2.3,-1.27 3.4,-1.9 1.1,-0.63 2.81,-1.65 3.8,-2.25 0.99,-0.61 2.31,-1.44 2.93,-1.84 l 1.12,-0.73 V 49.2 h -14.5 z m 29.3,-9.68 c 0,45.1 0.03,82 0.08,82 0.04,0 0.68,-0.52 1.42,-1.16 0.74,-0.64 2.18,-1.9 3.2,-2.81 1.02,-0.92 3.62,-3.43 5.78,-5.6 l 3.92,-3.93 V 49.2 H 146.1 Z M 175,115.68 c 0,38.77 0.03,66.43 0.09,66.37 0.04,-0.05 0.67,-0.95 1.39,-2 0.71,-1.05 1.77,-2.64 2.34,-3.55 0.58,-0.91 1.43,-2.3 1.9,-3.1 0.47,-0.8 1.25,-2.17 1.74,-3.05 0.48,-0.88 1.4,-2.68 2.05,-4 0.64,-1.32 1.47,-3.1 1.84,-3.95 0.37,-0.85 0.95,-2.27 1.3,-3.15 0.34,-0.88 0.88,-2.33 1.19,-3.22 l 0.56,-1.63 V 49.2 H 175 Z"
       id="path18"
       inkscape:connector-curvature="0"
       style="fill:#ffd200;fill-opacity:1" />
    <path
       class="shp0"
       d="m 10.9,128.83 c 0,0.23 0.07,1.21 0.15,2.17 0.08,0.96 0.22,2.38 0.31,3.15 0.08,0.77 0.28,2.35 0.45,3.5 0.16,1.16 0.45,2.98 0.65,4.05 0.19,1.07 0.55,2.85 0.8,3.95 0.25,1.1 0.58,2.52 0.75,3.15 0.17,0.63 0.49,1.78 0.71,2.55 0.22,0.77 0.63,2.1 0.9,2.95 0.28,0.85 0.79,2.32 1.13,3.25 0.35,0.94 0.85,2.22 1.1,2.85 0.26,0.63 0.81,1.92 1.22,2.85 0.41,0.94 1.29,2.76 1.94,4.05 0.65,1.29 1.64,3.16 2.2,4.15 0.55,0.99 1.51,2.61 2.12,3.6 0.61,0.99 1.6,2.54 2.2,3.45 0.61,0.91 1.53,2.26 2.05,3 0.53,0.74 1.56,2.16 2.3,3.15 0.75,0.99 2.13,2.77 3.07,3.95 0.95,1.18 2.46,3.01 3.35,4.05 0.9,1.05 2.22,2.55 2.93,3.35 0.72,0.8 2.05,2.25 2.96,3.23 0.91,0.98 1.67,1.77 1.69,1.77 0.01,0 0.02,-16.33 0.02,-36.3 v -36.3 h -35 z m 56,45.15 -0.01,45.57 c 3.07,2.19 4.7,3.31 5.61,3.92 0.91,0.6 2.39,1.57 3.3,2.15 0.91,0.57 2.35,1.47 3.2,1.98 0.85,0.51 2.36,1.39 3.35,1.95 0.99,0.56 2.41,1.35 3.15,1.75 0.74,0.4 2.59,1.34 4.1,2.09 1.51,0.75 3.52,1.71 4.45,2.13 0.94,0.42 2.13,0.94 2.65,1.16 0.52,0.22 1.54,0.64 2.25,0.92 0.72,0.29 1.73,0.67 2.25,0.86 0.52,0.19 0.96,0.34 0.98,0.34 0.01,0 0.02,-24.84 0.02,-55.2 V 128.4 H 66.9 Z"
       id="path20"
       inkscape:connector-curvature="0"
       style="fill:#ffffff" />
  </g>
</svg>
