<?xml version="1.0" standalone="no"?>
<!DOCTYPE svg PUBLIC "-//W3C//DTD SVG 20010904//EN"
 "http://www.w3.org/TR/2001/REC-SVG-20010904/DTD/svg10.dtd">
<svg version="1.0" xmlns="http://www.w3.org/2000/svg"
 width="1080.000000pt" height="892.000000pt" viewBox="0 0 1080.000000 892.000000"
 preserveAspectRatio="xMidYMid meet">
<metadata>
Created by potrace 1.16, written by Peter Selinger 2001-2019
</metadata>
<g transform="translate(0.000000,892.000000) scale(0.100000,-0.100000)"
fill="#000000" stroke="none">
<path d="M2765 6475 c-153 -28 -266 -80 -392 -180 -146 -115 -251 -279 -293
-459 -20 -83 -21 -110 -18 -425 4 -319 5 -339 27 -406 49 -146 125 -269 232
-371 112 -106 232 -173 384 -216 80 -23 81 -23 1014 -26 l933 -3 -7 68 c-26
247 -177 455 -410 563 -155 73 -151 72 -735 79 l-525 6 -63 34 c-131 71 -206
220 -181 358 26 140 122 241 265 278 50 13 177 15 856 15 l798 0 0 328 c0 180
-3 337 -6 350 l-6 22 -902 -1 c-691 -1 -917 -4 -971 -14z"/>
<path d="M4960 6141 l0 -350 823 -3 822 -3 68 -32 c88 -42 158 -113 187 -190
30 -80 25 -196 -12 -268 -35 -67 -97 -128 -166 -162 l-57 -28 -520 -6 c-493
-5 -524 -7 -599 -27 -303 -83 -509 -318 -541 -615 l-7 -68 928 3 c914 3 930 4
1004 25 129 36 189 63 279 124 149 99 261 236 321 390 59 153 62 180 58 544
-4 312 -5 334 -27 400 -96 291 -318 502 -616 587 l-80 23 -932 3 -933 3 0
-350z"/>
<path d="M4062 5430 c-31 -29 -29 -73 4 -99 26 -21 33 -21 796 -21 l769 0 24
25 c14 13 25 33 25 45 0 12 -11 32 -25 45 l-24 25 -774 0 c-764 0 -773 0 -795
-20z"/>
<path d="M4029 4085 c29 -30 64 -81 79 -112 23 -50 27 -71 27 -148 0 -78 -4
-98 -29 -148 -15 -32 -52 -84 -81 -115 l-53 -57 -861 -3 -861 -2 7 -358 c3
-196 8 -359 10 -362 3 -3 440 -5 971 -5 l967 0 75 36 c218 104 387 271 463
459 52 127 57 168 57 533 l0 337 -411 0 -412 0 52 -55z"/>
<path d="M4960 3464 l0 -673 43 -6 c23 -4 166 -5 317 -3 l275 3 3 460 c2 513
6 555 67 681 22 45 58 97 95 135 33 35 58 64 57 65 -1 1 -194 4 -429 6 l-428
5 0 -673z"/>
<path d="M6143 3920 c-118 -28 -181 -143 -119 -217 14 -16 58 -44 98 -62 121
-53 140 -64 151 -89 16 -34 -18 -74 -78 -90 -62 -18 -121 -2 -168 44 -29 29
-36 32 -46 20 -21 -26 -9 -68 27 -92 66 -45 220 -40 294 9 44 30 72 87 64 132
-9 44 -67 94 -138 119 -83 30 -126 54 -133 75 -13 41 32 86 102 101 35 8 39 6
68 -28 27 -30 38 -36 69 -35 48 1 68 19 64 57 -4 45 -52 66 -148 65 -41 -1
-89 -4 -107 -9z"/>
<path d="M8278 3900 c-14 -9 -16 -20 -11 -60 l6 -50 -47 0 c-42 0 -46 -2 -46
-24 0 -24 16 -36 51 -36 24 0 24 4 -6 -114 -29 -114 -32 -178 -9 -200 33 -34
92 -7 79 35 -12 36 -6 104 17 201 l21 87 46 3 c42 3 46 5 46 28 0 21 -5 26
-32 28 -32 3 -32 3 -30 55 l2 52 -35 2 c-19 2 -43 -2 -52 -7z"/>
<path d="M6552 3834 c-31 -16 -32 -18 -16 -35 15 -17 15 -27 -9 -146 -41 -200
-42 -215 -18 -237 13 -12 28 -16 44 -12 23 5 25 11 29 88 7 111 37 189 98 251
30 30 56 47 71 47 60 -1 65 -29 33 -189 -16 -80 -25 -147 -21 -163 8 -29 36
-43 66 -33 16 5 19 19 23 93 3 56 13 107 27 144 25 63 87 134 127 144 64 16
76 -34 45 -185 -29 -136 -28 -178 3 -192 41 -19 57 -1 60 72 2 35 13 100 25
143 37 141 24 209 -43 221 -58 11 -110 -10 -160 -66 -44 -49 -46 -50 -46 -25
0 15 -7 40 -15 56 -32 61 -149 45 -202 -28 -15 -21 -30 -40 -33 -44 -3 -4 -5
18 -5 50 0 54 -2 57 -25 60 -14 1 -40 -5 -58 -14z"/>
<path d="M7452 3831 c-60 -21 -123 -76 -155 -136 -17 -31 -22 -57 -22 -122 0
-94 16 -125 79 -157 54 -26 100 -15 153 39 l43 42 0 -32 c0 -40 30 -70 62 -62
22 6 24 12 25 79 1 40 13 124 28 187 33 146 32 154 -25 164 -96 18 -135 17
-188 -2z m142 -98 c-24 -137 -57 -213 -107 -243 -43 -27 -73 -25 -102 5 -53
52 -23 192 54 256 35 29 105 57 147 58 21 1 21 0 8 -76z"/>
<path d="M7877 3834 c-27 -15 -28 -17 -12 -34 15 -17 15 -26 -9 -132 -44 -201
-45 -250 -6 -263 40 -13 57 9 58 74 2 147 80 281 164 281 31 0 48 18 48 51 0
31 -23 44 -63 34 -30 -8 -57 -35 -92 -95 -15 -25 -24 -37 -21 -27 34 105 6
151 -67 111z"/>
<path d="M6545 3048 c-29 -16 -30 -16 -13 -35 14 -16 13 -34 -18 -193 -18 -96
-36 -205 -40 -242 -7 -65 -6 -68 18 -79 36 -16 67 2 61 35 -9 44 17 159 50
219 34 64 85 113 129 122 62 14 73 -40 38 -190 -11 -47 -20 -106 -20 -131 0
-37 4 -46 24 -55 38 -18 66 3 59 44 -2 18 7 83 21 147 45 200 33 245 -67 244
-66 0 -123 -33 -163 -94 -15 -22 -29 -39 -31 -37 -2 3 8 55 23 116 20 89 23
115 14 126 -15 18 -57 19 -85 3z"/>
<path d="M6053 3010 c-26 -10 -27 -14 -13 -39 6 -12 1 -66 -14 -167 -38 -238
-40 -262 -22 -290 18 -26 31 -29 70 -14 23 8 25 12 15 37 -6 15 -7 50 -3 80
l6 54 32 -7 c85 -19 166 -1 214 49 79 82 83 207 8 276 -31 29 -116 40 -167 22
-22 -8 -36 -8 -43 -1 -12 12 -53 12 -83 0z m206 -54 c33 -18 51 -54 51 -105 0
-74 -72 -141 -150 -141 -60 0 -61 4 -41 125 15 98 20 111 42 122 32 17 64 16
98 -1z"/>
<path d="M7184 2930 c-55 -17 -127 -73 -158 -123 -25 -41 -30 -61 -33 -130 -3
-71 -1 -87 19 -122 48 -82 146 -83 221 -1 30 31 38 36 37 21 -5 -47 1 -66 24
-76 44 -20 58 -1 61 87 2 43 15 130 30 193 29 126 25 146 -27 139 -15 -3 -29
0 -31 5 -4 14 -105 18 -143 7z m136 -44 c0 -30 -30 -155 -50 -209 -25 -67 -77
-117 -120 -117 -95 0 -105 161 -18 256 56 60 188 109 188 70z"/>
<path d="M7604 2930 c-30 -12 -36 -24 -21 -44 11 -15 9 -36 -10 -119 -13 -56
-26 -137 -30 -179 -6 -76 -5 -77 19 -89 45 -20 58 -2 62 82 6 137 71 253 147
265 61 10 89 50 57 82 -34 34 -99 -6 -149 -92 -17 -28 -27 -40 -22 -26 4 14 8
48 8 75 0 43 -3 50 -20 52 -11 1 -30 -2 -41 -7z"/>
<path d="M7948 2924 c-32 -17 -33 -21 -13 -44 12 -14 12 -24 -1 -80 -26 -113
-44 -214 -44 -253 0 -30 5 -40 24 -48 43 -20 56 -1 60 82 7 154 102 307 185
297 44 -5 47 -40 18 -192 -20 -100 -24 -142 -17 -161 12 -31 34 -41 62 -28 19
8 21 17 19 69 -4 112 57 249 132 294 81 50 108 11 82 -120 -33 -159 -37 -190
-31 -215 7 -26 36 -40 66 -30 17 5 20 15 20 63 0 31 9 94 20 140 11 46 20 110
20 142 0 51 -3 61 -26 79 -55 43 -152 13 -206 -64 l-33 -47 -6 47 c-9 77 -63
104 -142 72 -34 -15 -107 -89 -107 -109 0 -6 -2 -9 -5 -6 -3 3 -1 26 6 52 9
36 9 49 -1 61 -16 19 -47 19 -82 -1z"/>
<path d="M8850 2925 c-90 -29 -161 -113 -180 -214 -20 -106 26 -202 103 -216
47 -9 120 25 144 66 19 32 38 39 28 10 -14 -46 33 -94 72 -73 13 8 16 21 14
59 -1 27 9 107 24 178 32 159 31 180 -10 180 -16 0 -33 4 -37 9 -11 16 -111
16 -158 1z m145 -67 c-35 -220 -116 -335 -204 -288 -49 26 -52 137 -6 215 34
59 127 113 193 115 22 0 23 -3 17 -42z"/>
</g>
</svg>
