<?xml version="1.0" encoding="UTF-8" standalone="no"?>
<svg
   xmlns:dc="http://purl.org/dc/elements/1.1/"
   xmlns:cc="http://creativecommons.org/ns#"
   xmlns:rdf="http://www.w3.org/1999/02/22-rdf-syntax-ns#"
   xmlns:svg="http://www.w3.org/2000/svg"
   xmlns="http://www.w3.org/2000/svg"
   xmlns:sodipodi="http://sodipodi.sourceforge.net/DTD/sodipodi-0.dtd"
   xmlns:inkscape="http://www.inkscape.org/namespaces/inkscape"
   viewBox="0 0 4096.0001 4096.0001"
   version="1.1"
   id="svg20"
   sodipodi:docname="bayern-munich-logo.svg"
   width="4096"
   height="4096"
   inkscape:export-filename="G:\Users\suitedoalex\sites\bayern-munich-logo-0.png"
   inkscape:export-xdpi="96"
   inkscape:export-ydpi="96"
   inkscape:version="0.92.2 (5c3e80d, 2017-08-06)">
  <metadata
     id="metadata24">
    <rdf:RDF>
      <cc:Work
         rdf:about="">
        <dc:format>image/svg+xml</dc:format>
        <dc:type
           rdf:resource="http://purl.org/dc/dcmitype/StillImage" />
        <dc:title>FC Bayern München</dc:title>
      </cc:Work>
    </rdf:RDF>
  </metadata>
  <sodipodi:namedview
     pagecolor="#ffffff"
     bordercolor="#666666"
     borderopacity="1"
     objecttolerance="10"
     gridtolerance="10"
     guidetolerance="10"
     inkscape:pageopacity="0"
     inkscape:pageshadow="2"
     inkscape:window-width="1600"
     inkscape:window-height="837"
     id="namedview22"
     showgrid="false"
     inkscape:zoom="0.10406929"
     inkscape:cx="689.36536"
     inkscape:cy="2303.4513"
     inkscape:window-x="-8"
     inkscape:window-y="-8"
     inkscape:window-maximized="1"
     inkscape:current-layer="svg20" />
  <defs
     id="defs7">
    <style
       id="style2">.cls-1{fill:none}.cls-2{fill:#0066b2}.cls-3{fill:#fff}.cls-4{fill:#dc052d}.cls-5{clip-path:url(#clip-path)}</style>
    <clipPath
       id="clip-path">
      <path
         class="cls-1"
         d="M 136.03,136.03 H 430.9 V 430.9 H 136.03 Z"
         id="path4"
         inkscape:connector-curvature="0"
         style="fill:none" />
    </clipPath>
  </defs>
  <title
     id="title9">FC Bayern München</title>
  <g
     id="Ringe"
     transform="matrix(5.237288,0,0,5.237288,563.41216,563.41216)"
     inkscape:export-filename="G:\Users\suitedoalex\sites\bayern-munich-logo-4.png"
     inkscape:export-xdpi="12.932882"
     inkscape:export-ydpi="12.932882">
    <path
       class="cls-2"
       d="M 283.46,0 C 126.91,0 0,126.91 0,283.46 0,440.01 126.91,566.93 283.46,566.93 440.01,566.93 566.93,440 566.93,283.46 566.93,126.92 440,0 283.46,0 Z"
       id="path11"
       inkscape:connector-curvature="0"
       style="fill:#0066b2" />
    <path
       class="cls-3"
       d="m 283.46,14.17 c -148.72,0 -269.29,120.57 -269.29,269.29 0,148.72 120.57,269.3 269.29,269.3 148.72,0 269.3,-120.57 269.3,-269.3 0,-148.73 -120.57,-269.29 -269.3,-269.29 z"
       id="path13"
       inkscape:connector-curvature="0"
       style="fill:#ffffff" />
    <path
       class="cls-4"
       d="M 283.46,26.93 C 141.78,26.93 26.93,141.79 26.93,283.46 26.93,425.13 141.79,540 283.46,540 425.13,540 540,425.15 540,283.46 540,141.77 425.15,26.93 283.46,26.93 Z m 0,416.69 A 160.16,160.16 0 1 1 443.62,283.46 160.15,160.15 0 0 1 283.46,443.62 Z"
       id="path15"
       inkscape:connector-curvature="0"
       style="fill:#dc052d" />
  </g>
  <path
     class="cls-5 cls-2"
     d="m 142.65,327 a 146.77,146.77 0 0 0 32.5,56.43 V 317 l -37.56,-54.87 a 146.84,146.84 0 0 0 5.06,64.87 m 75.82,52.65 v -76.07 l -43,-62.81 v -57.61 a 147.82,147.82 0 0 0 -20.54,28.21 l 20.2,29.51 V 317 l 43,62.8 v 35.76 A 148,148 0 0 0 251,427.23 Z m 43.33,-89.52 43,62.8 v 76.11 l -43,-62.81 v -76.06 l -43,-62.81 v -76.11 l 43,62.8 z m 43.33,-13.41 -43,-62.81 v -76.07 l 43,62.81 v 76.11 l 43,62.81 v 76.11 l -43,-62.81 z M 239.89,142.65 A 146.81,146.81 0 0 0 183,175.59 l 35.51,51.87 v 76.11 l 43,62.8 v 62.86 A 147.7,147.7 0 0 0 384,391.34 l -35.51,-51.87 v -76.12 l -43,-62.81 v -62.86 a 146.81,146.81 0 0 0 -65.58,5 m 151.9,183.4 v -76.14 l -43,-62.81 V 151.38 A 147.86,147.86 0 0 0 315.93,139.7 l 32.54,47.54 v 76.11 l 43,62.81 v 57.61 A 147.83,147.83 0 0 0 412,355.57 Z m 32.49,-86.17 a 146.84,146.84 0 0 0 -32.49,-56.43 v 66.49 l 37.55,54.86 a 146.8,146.8 0 0 0 -5.06,-64.92"
     id="Rapport"
     clip-path="url(#clip-path)"
     inkscape:connector-curvature="0"
     style="fill:#0066b2"
     transform="matrix(5.237288,0,0,5.237288,563.41216,563.41216)"
     inkscape:export-filename="G:\Users\suitedoalex\sites\bayern-munich-logo-4.png"
     inkscape:export-xdpi="12.932882"
     inkscape:export-ydpi="12.932882" />
  <path
     class="cls-3"
     d="m 1149.9885,2325.4978 38.1274,81.1779 -62.0095,117.2105 c -9.3223,17.4402 -17.3878,31.6856 -17.3878,31.6856 l 0.838,1.5188 c 0,0 16.3928,0.9951 36.0849,2.671 l 132.0844,11.8886 47.1356,76.2026 -285.4321,166.7552 -45.61683,-73.322 119.51483,-69.5512 c 27.8625,-16.1307 48.8639,-27.4957 48.8639,-27.4957 l -0.838,-1.5189 c 0,0 -14.4025,-1.0474 -44.5169,-5.4991 l -121.55743,-18.0686 -0.838,-1.5188 50.80173,-111.8162 c 12.6742,-27.6528 19.6399,-40.327 19.6399,-40.327 l -0.838,-1.5189 c 0,0 -20.9492,11.4173 -49.7019,26.1864 l -123.39054,61.8525 -36.66102,-78.1404 z m 218.4996,360.2729 65.7804,58.4482 -132.0844,157.1186 c -21.6824,26.1865 -20.5826,53.5252 12.2028,79.345 32.7854,25.8198 59.7051,20.4777 80.0258,-6.7037 l 121.8193,-165.2365 72.2222,50.2256 -125.0664,169.3739 c -57.3483,77.7214 -131.6131,62.3761 -195.8223,11.8362 -64.2091,-50.5397 -96.6279,-119.1482 -34.4089,-193.3082 z m 131.6131,106.9455 -81.178,56.7198 -1.3617,-1.0998 36.1897,-92.1762 z m 139.2071,94.8997 85.8916,31.4237 48.5496,165.8125 c 10.4746,35.8754 14.7691,54.8344 14.7691,54.8344 l 2.514,0.7333 c 0,0 5.6038,-24.6677 13.8264,-54.8345 l 35.2469,-131.9273 83.7967,19.8494 -85.3679,319.4746 -89.0339,-21.3682 -55.1486,-173.3542 c -10.4746,-33.6758 -15.1881,-54.9916 -15.1881,-54.9916 l -2.514,-0.7332 c 0,0 -7.3846,26.1865 -16.7069,53.9965 l -45.0406,134.4412 -80.9162,-29.8525 z m 643.0866,286.0083 c 1.833,78.5593 -47.1357,132.1891 -140.9354,138.5263 -87.6199,6.0752 -169.6358,-33.833 -174.4541,-161.518 -4.8707,-129.5182 66.8278,-178.0678 150.9387,-183.6718 91.0764,-6.18 143.7635,44.7266 152.824,113.8587 l -88.5102,5.9706 c -8.1178,-29.9574 -24.1438,-47.607 -63.1616,-44.936 -36.661,2.4615 -62.0619,36.0325 -59.2862,102.4938 2.9853,69.4987 31.7904,96.3137 72.5889,93.5902 40.7984,-2.7233 58.6052,-22.2584 60.543,-58.1338 z m 19.7969,-228.3982 82.0683,-31.4237 46.4025,111.1352 102.4413,-46.7165 -53.6822,-108.3595 77.7737,-41.1651 146.6441,296.3257 -77.8785,41.3222 -58.0292,-117.839 -107.2072,48.864 50.9587,121.348 -82.0683,31.4237 -127.4232,-304.5483 z m 306.9574,-155.1285 158.2186,-151.6195 50.9064,49.9638 -99.1942,95.0568 37.8655,41.8983 96.0519,-92.0191 49.7018,48.7068 -99.2465,95.1614 41.1651,46.0882 111.7637,-107.1026 50.9064,49.9637 -177.0203,169.6358 z m 197.7077,-198.4932 45.2502,-79.3449 171.6783,-19.7969 c 37.1324,-4.2946 56.5627,-5.2373 56.5627,-5.2373 l 1.1522,-2.3568 c 0,0 -23.2012,-9.8461 -51.3254,-22.9393 l -124.0713,-57.034 33.7281,-79.345 299.8347,138.1073 -36.0849,83.7967 -180.2151,25.2437 c -34.9851,4.9229 -56.7722,5.7086 -56.7722,5.7086 l -1.1522,2.3568 c 0,0 24.3011,11.6268 50.3827,25.6103 l 124.857,67.142 -43.1029,74.6838 z M 916.61487,1497.4825 l 66.3041,26.1864 -52.8966,146.8012 61.9047,20.4778 49.54473,-137.3741 64.6805,25.6627 -48.0782,133.289 115.7964,37.6038 -24.8772,84.3727 -316.75114,-103.1746 z M 1321.562,1279.297 c 57.1388,51.7968 66.9849,122.7621 9.8985,195.0367 -52.3729,66.1469 -132.7129,97.8849 -236.7778,20.6349 -102.70323,-76.1502 -89.0339,-166.2316 -34.6709,-235.1543 57.6103,-73.0078 131.1941,-79.1353 188.5424,-38.4941 l -54.9915,69.6036 c -26.8149,-15.0833 -52.0063,-13.4074 -77.0928,18.3305 -25.0867,31.738 -19.5352,71.0177 36.1372,112.7589 53.2632,39.8557 94.8473,38.3893 118.0484,9.0605 24.7725,-31.4237 19.9541,-56.8246 -4.2945,-81.4922 z m 217.2427,-374.15187 c 58.3958,-26.97198 115.587,-32.83778 140.7784,26.86729 20.6872,48.86395 7.5416,70.23208 -17.964,91.65258 l 0.8904,1.9901 c 27.2338,-6.337 63.7378,-5.2372 86.9913,49.3353 27.9147,65.6233 -14.8739,103.5937 -73.322,130.618 l -123.4952,57.0865 -148.0582,-295.54025 z m 49.5971,119.77677 c 22.887,-10.4745 29.4336,-21.2633 20.216,-43.31232 -8.9034,-21.26334 -23.9868,-22.88692 -46.0882,-12.6742 l -49.3352,22.78222 27.8624,55.1486 z m 55.8295,120.7719 c 25.2437,-11.6791 32.157,-21.5775 21.4729,-46.8213 -9.9509,-23.6202 -27.4434,-24.1963 -52.7395,-12.5171 l -42.6315,19.6922 30.0621,59.6526 z m 495.8665,-23.3583 h -93.7998 l -26.9197,-59.4432 -113.492,9.7414 -16.3927,62.8474 -92.4382,16.2357 91.6001,-345.66117 102.2319,-8.79864 z m -146.2775,-123.12863 -28.229,-64.31396 c -9.7413,-21.83939 -17.0735,-41.26976 -17.0735,-41.26976 h -1.7283 c 0,0 -3.928,20.42543 -9.7937,43.62656 l -16.8117,68.08479 z m 229.8123,26.13403 -76.7787,-234.63047 99.0894,18.85421 30.0621,99.50851 c 5.6563,19.01136 10.4746,39.22729 10.4746,39.22729 l 1.6759,0.36656 c 0,0 12.8837,-16.34027 25.9246,-31.42372 l 68.556,-78.08791 97.9898,23.93433 -166.9648,181.7863 -25.5579,109.6689 -86.6772,-18.8019 z m 322.9834,-133.65553 208.0252,114.22523 -36.2421,61.4334 -128.1564,-70.49392 -25.6627,50.38272 118.5199,65.0472 -35.4041,59.9146 -114.6967,-62.8476 -28.1765,54.9393 124.9616,68.6084 -36.242,61.4334 -196.6078,-107.9405 z m 323.0884,203.67823 100.9225,107.9928 c 51.6396,55.2534 63.9996,108.569 2.5139,162.3559 -39.2797,34.3566 -68.0848,43.8361 -102.4937,30.3763 l -52.7919,133.2366 -62.3237,-76.2025 48.2877,-108.7785 -28.805,-30.7953 -77.669,77.3548 -63.7902,-60.5954 z m -45.4073,169.1643 34.1471,36.661 c 19.0113,20.3207 34.985,20.9492 56.1961,2.1997 21.211,-18.7495 20.5825,-35.8754 1.5712,-56.2485 l -35.9278,-38.4417 z m 128.7325,569.3456 -30.1668,-86.3105 97.5708,-142.5589 c 20.9491,-30.2716 33.0996,-46.193 33.0996,-46.193 l -0.9951,-2.4091 c 0,0 -22.625,11.2602 -51.2207,24.0391 l -124.3856,56.3009 -37.8132,-77.5119 301.1441,-136.1695 39.8033,82.3303 -99.0895,152.6145 c -19.0113,29.0669 -32.8901,46.6119 -32.8901,46.6119 l 0.9951,2.4091 c 0,0 24.72,-10.4746 52.3729,-21.2634 l 132.5557,-50.2779 28.1767,81.4922 z"
     id="Schrift"
     inkscape:connector-curvature="0"
     style="fill:#ffffff;stroke-width:5.237288"
     inkscape:export-filename="G:\Users\suitedoalex\sites\bayern-munich-logo-4.png"
     inkscape:export-xdpi="12.932882"
     inkscape:export-ydpi="12.932882" />
</svg>
