<?xml version="1.0" encoding="UTF-8" standalone="no"?>
<!-- Generator: Adobe Illustrator 23.0.1, SVG Export Plug-In . SVG Version: 6.00 Build 0)  -->

<svg
   xmlns:dc="http://purl.org/dc/elements/1.1/"
   xmlns:cc="http://creativecommons.org/ns#"
   xmlns:rdf="http://www.w3.org/1999/02/22-rdf-syntax-ns#"
   xmlns:svg="http://www.w3.org/2000/svg"
   xmlns="http://www.w3.org/2000/svg"
   xmlns:sodipodi="http://sodipodi.sourceforge.net/DTD/sodipodi-0.dtd"
   xmlns:inkscape="http://www.inkscape.org/namespaces/inkscape"
   version="1.1"
   id="Ebene_1"
   x="0px"
   y="0px"
   viewBox="0 0 4096 4096"
   xml:space="preserve"
   sodipodi:docname="fc-augsburg-logo.svg"
   width="4096"
   height="4096"
   inkscape:version="0.92.4 (5da689c313, 2019-01-14)"
   inkscape:export-filename="G:\Users\suitedoalex\sites\svg\fc-augsburg-logo-0.png"
   inkscape:export-xdpi="96"
   inkscape:export-ydpi="96"><metadata
   id="metadata207"><rdf:RDF><cc:Work
       rdf:about=""><dc:format>image/svg+xml</dc:format><dc:type
         rdf:resource="http://purl.org/dc/dcmitype/StillImage" /><dc:title></dc:title></cc:Work></rdf:RDF></metadata><defs
   id="defs205" /><sodipodi:namedview
   pagecolor="#ffffff"
   bordercolor="#666666"
   borderopacity="1"
   objecttolerance="10"
   gridtolerance="10"
   guidetolerance="10"
   inkscape:pageopacity="0"
   inkscape:pageshadow="2"
   inkscape:window-width="1600"
   inkscape:window-height="837"
   id="namedview203"
   showgrid="false"
   inkscape:zoom="0.10340353"
   inkscape:cx="519.79208"
   inkscape:cy="1534.8051"
   inkscape:window-x="-8"
   inkscape:window-y="-8"
   inkscape:window-maximized="1"
   inkscape:current-layer="Ebene_1" />
<style
   type="text/css"
   id="style2">
	.st0{fill:#FFDD00;}
	.st1{fill:#FFFFFF;}
	.st2{fill:#CD1719;}
	.st3{fill:#006139;}
	.st4{fill:#1D1D1B;}
</style>
<g
   id="g134"
   transform="matrix(24.832419,0,0,24.832419,955.99437,247.52546)"
   inkscape:export-xdpi="17.582327"
   inkscape:export-ydpi="17.582327">
	<path
   class="st0"
   d="m 86.76,83.43 c 0,24.83 -20.2,45.03 -45.03,45.03 -22.35,0 -40.54,-18.19 -40.54,-40.54 V 49.74 48.55 16.54 H 86.76 Z M 0,15.35 v 72.58 c 0,23.05 18.68,41.73 41.73,41.73 v 0 c 25.53,0 46.22,-20.7 46.22,-46.22 V 15.35 Z"
   id="path4"
   inkscape:connector-curvature="0"
   style="fill:#ffdd00" />
	<path
   class="st1"
   d="m 43.98,126.02 c 22.48,-1.17 40.41,-19.83 40.41,-42.6 V 50.92 H 43.98 Z"
   id="path6"
   inkscape:connector-curvature="0"
   style="fill:#ffffff" />
	<polygon
   class="st1"
   points="3.57,47.36 84.38,47.36 84.38,18.92 3.57,18.92 "
   id="polygon8"
   style="fill:#ffffff" />
	<path
   class="st0"
   d="M 3.57,47.36 V 18.92 H 84.38 V 47.36 Z M 2.38,17.73 v 30.82 h 0.09 1.1 80.81 0.46 0.73 V 17.73 Z"
   id="path10"
   inkscape:connector-curvature="0"
   style="fill:#ffdd00" />
	<path
   class="st2"
   d="M 85.57,48.55 H 84.84 84.38 3.57 2.47 2.38 V 17.73 h 83.19 z m 0,34.88 c 0,24.18 -19.67,43.84 -43.84,43.84 -21.7,0 -39.35,-17.65 -39.35,-39.35 V 49.74 h 0.41 0.78 80.81 0.78 0.41 z M 1.19,16.54 v 32.01 1.19 38.19 c 0,22.35 18.19,40.54 40.54,40.54 24.83,0 45.03,-20.2 45.03,-45.03 v -66.9 z"
   id="path12"
   inkscape:connector-curvature="0"
   style="fill:#cd1719" />
	<path
   class="st0"
   d="m 84.38,83.43 c 0,22.77 -17.93,41.42 -40.41,42.6 -0.74,0.04 -1.49,0.06 -2.25,0.06 -21.04,0 -38.16,-17.12 -38.16,-38.16 v -37 H 43.97 84.38 Z M 85.17,49.74 H 84.39 3.57 2.79 2.38 v 38.19 c 0,21.7 17.65,39.35 39.35,39.35 24.18,0 43.84,-19.67 43.84,-43.84 v -33.7 z"
   id="path14"
   inkscape:connector-curvature="0"
   style="fill:#ffdd00" />
	<path
   class="st2"
   d="m 3.57,50.93 v 37 c 0,21.04 17.12,38.16 38.16,38.16 0.75,0 1.5,-0.02 2.25,-0.06 v -75.1 z"
   id="path16"
   inkscape:connector-curvature="0"
   style="fill:#cd1719" />
	<path
   class="st2"
   d="m 33.03,38.84 c 0,0 3.77,0.81 13.16,0.32 0,0 4.31,-0.04 4.31,-3.38 v -3.09 h -5.34 v 1.4 c 0,0 0.04,1.01 -0.72,1.01 h -7.81 c 0,0 -1.56,-0.15 -1.77,-1.61 v -5.18 c 0,0 0.11,-1.15 1.51,-1.24 0,0 2.25,-0.32 7.17,-0.05 0,0 1.69,-0.11 1.67,1.89 h 5.03 l -0.03,-2.98 c 0,0 -0.25,-2.89 -3.81,-3.11 0,0 -8.3,-0.32 -11.97,0.05 0,0 -4.75,0.11 -4.64,3.72 v 8.79 c 0,0.01 -0.16,3.02 3.24,3.46 z"
   id="path18"
   inkscape:connector-curvature="0"
   style="fill:#cd1719" />
	<polygon
   class="st2"
   points="16.73,33.89 28.3,33.89 28.3,29.94 16.73,29.94 16.65,27.08 28.87,27.06 28.87,23.04 11.69,23.04 11.69,39.57 16.8,39.57 "
   id="polygon20"
   style="fill:#cd1719" />
	<path
   class="st2"
   d="m 59.43,32.54 2.87,-5.82 h 0.79 l 2.8,5.82 z m 7.35,-9.77 H 58.82 L 49.63,40.6 v 3.43 h 4.19 l 3.88,-7.86 10.19,-0.01 3.78,7.87 h 6.47 z"
   id="path22"
   inkscape:connector-curvature="0"
   style="fill:#cd1719" />
	<polygon
   class="st2"
   points="11.69,40.23 24.41,40.23 24.41,44.03 11.69,44.03 "
   id="polygon24"
   style="fill:#cd1719" />
	<polygon
   class="st3"
   points="24.41,40.23 37.13,40.23 37.13,44.03 24.41,44.03 "
   id="polygon26"
   style="fill:#006139" />
	<polygon
   class="st1"
   points="37.13,40.23 49.85,40.23 49.85,44.03 37.13,44.03 "
   id="polygon28"
   style="fill:#ffffff" />
	<path
   class="st2"
   d="M 49.85,40.23 H 37.13 v 3.8 h 12.72 z m -0.42,0.42 v 2.96 H 37.55 v -2.96 h 11.88"
   id="path30"
   inkscape:connector-curvature="0"
   style="fill:#cd1719" />
	<polygon
   class="st1"
   points="34.39,119.13 34.39,119.62 31.03,119.62 31.03,119.13 32.09,118.83 32.09,115.03 31.03,114.71 31.03,114.23 34.39,114.23 34.39,114.71 33.34,115.02 33.34,118.83 "
   id="polygon32"
   style="fill:#ffffff" />
	<path
   class="st1"
   d="m 40.58,118.31 c -0.3,0.11 -0.86,0.3 -1.33,0.3 -0.84,0 -1.3,-0.88 -1.33,-1.92 -0.03,-1.1 0.44,-1.81 1.23,-1.84 0.83,-0.04 1.53,0.9 1.56,2.04 0.02,0.64 -0.07,1.13 -0.13,1.42 z m -1.29,-4.26 c -1.58,0 -2.57,1.22 -2.57,2.68 0,1.79 1.07,2.67 2.45,2.67 0.38,0 0.84,-0.15 1.12,-0.26 -0.52,1.18 -1.51,2.05 -2.99,2.63 l 0.33,0.7 c 2.86,-0.81 4.37,-3.14 4.33,-5.33 -0.03,-1.68 -0.92,-3.09 -2.67,-3.09 z"
   id="path34"
   inkscape:connector-curvature="0"
   style="fill:#ffffff" />
	<path
   class="st2"
   d="m 48.29,118.88 c -1.11,0 -1.82,-0.88 -1.82,-1.99 0,-1.1 0.71,-1.97 1.82,-1.97 1.11,0 1.84,0.88 1.84,1.97 0,1.12 -0.73,1.99 -1.84,1.99 z m 0,-4.89 c -1.67,0 -3.03,1.3 -3.03,2.9 0,1.62 1.36,2.92 3.03,2.92 1.67,0 3.04,-1.3 3.04,-2.92 0,-1.6 -1.37,-2.9 -3.04,-2.9 z"
   id="path36"
   inkscape:connector-curvature="0"
   style="fill:#cd1719" />
	<path
   class="st2"
   d="m 53.88,122.12 h -1.03 c 0.36,-1.77 1.34,-4.36 2.9,-6.89 h -3.59 v -1 h 4.95 v 0.78 c -1.09,1.61 -2.72,4.92 -3.23,7.11 z"
   id="path38"
   inkscape:connector-curvature="0"
   style="fill:#cd1719" />
	<path
   class="st4"
   d="m 59.65,93.03 -4.86,-4.37 c -2.21,0.36 -4.46,0.66 -6.75,0.8 L 48,86.05 c 4.06,-0.36 6.01,-1.46 7.78,-3.13 2.13,-2.04 3.13,-4.66 3.13,-8.44 0,-6.41 -3.77,-12.45 -7,-15.65 -3.03,-3.06 -6.21,-3.93 -7.84,-4.29 h -0.09 -0.09 c -1.62,0.36 -4.81,1.24 -7.84,4.29 -3.22,3.2 -6.99,9.24 -6.99,15.65 0,3.78 0.99,6.41 3.12,8.44 1.78,1.67 3.72,2.77 7.79,3.13 l -0.06,3.42 c -2.29,-0.15 -4.53,-0.44 -6.75,-0.8 l -4.86,4.37 1.98,2.18 C 30.1,95.65 30,96.16 30,96.67 c 0,1.53 1.22,2.77 2.74,2.77 0.45,0 1.3,-0.15 1.84,-0.8 0.16,-0.22 0.28,-0.44 0.36,-0.73 1.25,2.62 2,6.77 2.33,12.88 l 0.02,0.44 h 13.39 l 0.03,-0.44 c 0.32,-6.11 1.08,-10.26 2.33,-12.88 0.07,0.29 0.19,0.51 0.35,0.73 0.55,0.65 1.39,0.8 1.85,0.8 1.51,0 2.74,-1.24 2.74,-2.77 0,-0.51 -0.1,-1.02 -0.29,-1.46 l 1.96,-2.18"
   id="path40"
   inkscape:connector-curvature="0"
   style="fill:#1d1d1b" />
	<path
   class="st3"
   d="m 44.78,85.17 2.93,-1.75 -3.73,-2.18 -3.73,2.18 2.93,1.75 c 0.26,0 0.52,0 0.8,0 0.28,0 0.54,0 0.8,0"
   id="path42"
   inkscape:connector-curvature="0"
   style="fill:#006139" />
	<path
   class="st3"
   d="m 49.42,61.73 3.73,2.26 1.07,-0.65 C 53.48,62.18 52.7,61.16 51.9,60.28 l -2.48,1.45"
   id="path44"
   inkscape:connector-curvature="0"
   style="fill:#006139" />
	<path
   class="st3"
   d="m 34.82,81.24 -1.79,1.09 c 1.03,0.87 2.15,1.6 3.83,2.11 l 1.7,-1.02 -3.74,-2.18"
   id="path46"
   inkscape:connector-curvature="0"
   style="fill:#006139" />
	<path
   class="st3"
   d="m 38.07,84.74 c 0.94,0.22 2.02,0.29 3.32,0.36 l -1.99,-1.16 -1.33,0.8"
   id="path48"
   inkscape:connector-curvature="0"
   style="fill:#006139" />
	<path
   class="st3"
   d="m 46.58,85.1 c 1.3,-0.07 2.39,-0.15 3.32,-0.36 l -1.33,-0.8 -1.99,1.16"
   id="path50"
   inkscape:connector-curvature="0"
   style="fill:#006139" />
	<path
   class="st3"
   d="m 55.57,81.68 c 0.76,-0.87 1.32,-1.75 1.7,-2.91 l -3.27,1.96 1.57,0.95"
   id="path52"
   inkscape:connector-curvature="0"
   style="fill:#006139" />
	<path
   class="st3"
   d="m 57.69,72.07 c -0.2,-1.31 -0.55,-2.55 -1,-3.79 l -2.7,1.6 3.7,2.19"
   id="path54"
   inkscape:connector-curvature="0"
   style="fill:#006139" />
	<path
   class="st3"
   d="m 57.76,73.09 h -0.04 l -3.72,2.18 3.62,2.18 c 0.18,-0.87 0.27,-1.89 0.27,-2.98 0,-0.44 -0.04,-0.95 -0.08,-1.38 H 57.8 57.76"
   id="path56"
   inkscape:connector-curvature="0"
   style="fill:#006139" />
	<path
   class="st3"
   d="m 49.42,83.42 1.69,1.02 c 1.68,-0.51 2.8,-1.24 3.83,-2.11 l -1.79,-1.09 -3.73,2.18"
   id="path58"
   inkscape:connector-curvature="0"
   style="fill:#006139" />
	<path
   class="st3"
   d="m 30.71,78.77 c 0.38,1.16 0.93,2.04 1.69,2.91 l 1.57,-0.95 -3.26,-1.96"
   id="path60"
   inkscape:connector-curvature="0"
   style="fill:#006139" />
	<path
   class="st3"
   d="m 47.16,56.64 c -1.28,-0.58 -2.4,-0.95 -3.17,-1.09 -0.78,0.15 -1.9,0.51 -3.18,1.09 l 3.18,1.89 3.17,-1.89"
   id="path62"
   inkscape:connector-curvature="0"
   style="fill:#006139" />
	<path
   class="st3"
   d="m 43.14,59.04 -3.22,-1.89 c -1,0.58 -2.08,1.38 -3.14,2.4 -0.03,0 -0.06,0.07 -0.08,0.07 l 2.71,1.6 3.73,-2.18"
   id="path64"
   inkscape:connector-curvature="0"
   style="fill:#006139" />
	<path
   class="st3"
   d="m 48.57,61.22 2.72,-1.6 c -0.03,0 -0.06,-0.07 -0.09,-0.07 -1.06,-1.02 -2.13,-1.82 -3.14,-2.4 l -3.22,1.89 3.73,2.18"
   id="path66"
   inkscape:connector-curvature="0"
   style="fill:#006139" />
	<path
   class="st3"
   d="m 38.56,61.73 -2.47,-1.46 c -0.8,0.87 -1.59,1.89 -2.32,3.06 l 1.06,0.65 3.73,-2.25"
   id="path68"
   inkscape:connector-curvature="0"
   style="fill:#006139" />
	<path
   class="st3"
   d="M 30.24,73.09 H 30.2 30.16 30.15 c -0.04,0.44 -0.07,0.95 -0.07,1.38 0,1.09 0.09,2.11 0.26,2.98 l 3.62,-2.18 -3.72,-2.18"
   id="path70"
   inkscape:connector-curvature="0"
   style="fill:#006139" />
	<path
   class="st3"
   d="m 31.27,68.28 c -0.45,1.24 -0.79,2.47 -0.99,3.79 l 3.69,-2.18 -2.7,-1.61"
   id="path72"
   inkscape:connector-curvature="0"
   style="fill:#006139" />
	<path
   class="st3"
   d="m 33.3,64.06 c -0.23,0.36 -0.47,0.8 -0.68,1.16 l 1.35,-0.8 -0.67,-0.36"
   id="path74"
   inkscape:connector-curvature="0"
   style="fill:#006139" />
	<path
   class="st3"
   d="m 34.82,69.38 3.73,-2.18 -3.73,-2.26 -2.89,1.75 c -0.12,0.22 -0.23,0.51 -0.34,0.8 l 3.23,1.89"
   id="path76"
   inkscape:connector-curvature="0"
   style="fill:#006139" />
	<polyline
   class="st3"
   points="40.25,72.58 43.99,74.84 47.71,72.58 43.99,70.4 40.25,72.58  "
   id="polyline78"
   style="fill:#006139" />
	<polyline
   class="st3"
   points="34.82,75.78 31.1,78.04 34.82,80.22 38.56,78.04 34.82,75.78  "
   id="polyline80"
   style="fill:#006139" />
	<polyline
   class="st3"
   points="35.67,80.73 39.4,82.92 43.14,80.73 39.4,78.55 35.67,80.73  "
   id="polyline82"
   style="fill:#006139" />
	<polyline
   class="st3"
   points="38.56,72.58 34.82,70.4 31.1,72.58 34.82,74.84 38.56,72.58  "
   id="polyline84"
   style="fill:#006139" />
	<polyline
   class="st3"
   points="43.14,64.43 39.4,62.24 35.67,64.43 39.4,66.68 43.14,64.43  "
   id="polyline86"
   style="fill:#006139" />
	<polyline
   class="st3"
   points="43.14,69.89 39.4,67.7 35.67,69.89 39.4,72.07 43.14,69.89  "
   id="polyline88"
   style="fill:#006139" />
	<polyline
   class="st3"
   points="43.99,75.78 40.25,78.04 43.99,80.22 47.71,78.04 43.99,75.78  "
   id="polyline90"
   style="fill:#006139" />
	<polyline
   class="st3"
   points="44.83,80.73 48.57,82.92 52.29,80.73 48.57,78.55 44.83,80.73  "
   id="polyline92"
   style="fill:#006139" />
	<polyline
   class="st3"
   points="44.83,69.89 48.57,72.07 52.29,69.89 48.57,67.7 44.83,69.89  "
   id="polyline94"
   style="fill:#006139" />
	<polyline
   class="st3"
   points="53.14,74.84 56.87,72.58 53.14,70.4 49.42,72.58 53.14,74.84  "
   id="polyline96"
   style="fill:#006139" />
	<polyline
   class="st3"
   points="49.42,78.04 53.14,80.22 56.87,78.04 53.14,75.78 49.42,78.04  "
   id="polyline98"
   style="fill:#006139" />
	<polyline
   class="st3"
   points="44.83,64.43 48.57,66.68 52.29,64.43 48.57,62.24 44.83,64.43  "
   id="polyline100"
   style="fill:#006139" />
	<polyline
   class="st3"
   points="47.71,61.73 43.99,59.55 40.25,61.73 43.99,63.99 47.71,61.73  "
   id="polyline102"
   style="fill:#006139" />
	<path
   class="st3"
   d="m 55.35,65.23 c -0.22,-0.36 -0.44,-0.8 -0.68,-1.16 l -0.67,0.36 1.35,0.8"
   id="path104"
   inkscape:connector-curvature="0"
   style="fill:#006139" />
	<path
   class="st3"
   d="m 53.14,64.94 -3.73,2.26 3.73,2.18 3.23,-1.89 c -0.1,-0.29 -0.22,-0.58 -0.33,-0.8 l -2.9,-1.75"
   id="path106"
   inkscape:connector-curvature="0"
   style="fill:#006139" />
	<polyline
   class="st3"
   points="35.67,75.27 39.4,77.53 43.14,75.27 39.4,73.09 35.67,75.27  "
   id="polyline108"
   style="fill:#006139" />
	<polyline
   class="st3"
   points="43.99,64.94 40.25,67.19 43.99,69.38 47.71,67.19 43.99,64.94  "
   id="polyline110"
   style="fill:#006139" />
	<polyline
   class="st3"
   points="52.29,75.27 48.57,73.09 44.83,75.27 48.57,77.53 52.29,75.27  "
   id="polyline112"
   style="fill:#006139" />
	<path
   class="st0"
   d="m 35.65,92.6 h 4.22 l 0.04,-2.26 c -2.19,-0.15 -4.35,-0.36 -6.47,-0.8 -1.59,1.46 -2.98,2.77 -3.89,3.57 l 1.21,1.31 c 0.9,-1.17 2.59,-1.82 4.89,-1.82"
   id="path114"
   inkscape:connector-curvature="0"
   style="fill:#ffdd00" />
	<path
   class="st0"
   d="m 54.53,89.54 c -2.12,0.36 -4.27,0.66 -6.46,0.8 l 0.04,2.26 h 0.09 4.12 c 2.3,0 4,0.66 4.91,1.82 l 1.2,-1.31 C 57.51,92.31 56.11,91 54.53,89.54"
   id="path116"
   inkscape:connector-curvature="0"
   style="fill:#ffdd00" />
	<path
   class="st0"
   d="m 43.99,92.67 h -3.25 l 0.1,-6.55 c 0.94,0.07 1.98,0.07 3.14,0.07 1.16,0 2.21,0 3.14,-0.07 l 0.1,6.55 h -3.23"
   id="path118"
   inkscape:connector-curvature="0"
   style="fill:#ffdd00" />
	<path
   class="st0"
   d="m 34.59,93.47 c -2.38,0.29 -3.72,1.46 -3.72,3.2 0,1.02 0.84,1.89 1.87,1.89 0.3,0 0.85,-0.07 1.17,-0.44 0.28,-0.36 0.34,-0.95 0.18,-1.67 l 0.78,-0.36 c 1.59,2.26 2.56,5.9 3.05,11.72 l 2.55,-6.26 c -1.76,-3.86 -3.75,-7.06 -5.88,-8.08"
   id="path120"
   inkscape:connector-curvature="0"
   style="fill:#ffdd00" />
	<path
   class="st0"
   d="m 40.93,100.46 2.87,-6.92 -7.6,-0.07 c 1.54,1.24 3.08,3.49 4.73,6.99"
   id="path122"
   inkscape:connector-curvature="0"
   style="fill:#ffdd00" />
	<path
   class="st0"
   d="m 51.77,93.47 -7.59,0.07 2.87,6.92 c 1.64,-3.5 3.18,-5.75 4.72,-6.99"
   id="path124"
   inkscape:connector-curvature="0"
   style="fill:#ffdd00" />
	<path
   class="st0"
   d="m 41.42,101.55 c 0.82,1.89 1.67,4 2.57,6.48 0.9,-2.47 1.74,-4.59 2.56,-6.48 -1.21,-2.91 -2.29,-5.53 -2.56,-6.19 -0.29,0.66 -1.36,3.28 -2.57,6.19"
   id="path126"
   inkscape:connector-curvature="0"
   style="fill:#ffdd00" />
	<path
   class="st0"
   d="m 40.97,102.64 c -1.08,2.62 -2.19,5.31 -2.9,7.06 0.01,0.22 0.02,0.44 0.04,0.66 0.36,0 3.06,0 5.78,0 l -0.31,-0.87 c -0.8,-2.26 -1.67,-4.66 -2.61,-6.85"
   id="path128"
   inkscape:connector-curvature="0"
   style="fill:#ffdd00" />
	<path
   class="st0"
   d="m 53.38,93.47 c -2.13,1.02 -4.12,4.22 -5.89,8.08 l 2.55,6.26 c 0.49,-5.82 1.46,-9.46 3.05,-11.72 l 0.78,0.36 c -0.16,0.73 -0.09,1.31 0.19,1.67 0.32,0.36 0.87,0.44 1.17,0.44 1.03,0 1.87,-0.87 1.87,-1.89 0,-1.74 -1.34,-2.91 -3.72,-3.2"
   id="path130"
   inkscape:connector-curvature="0"
   style="fill:#ffdd00" />
	<path
   class="st0"
   d="m 44.39,109.48 -0.31,0.87 c 2.72,0 5.42,0 5.78,0 0.01,-0.22 0.03,-0.44 0.04,-0.66 -0.71,-1.75 -1.83,-4.44 -2.9,-7.06 -0.94,2.2 -1.81,4.6 -2.61,6.85"
   id="path132"
   inkscape:connector-curvature="0"
   style="fill:#ffdd00" />
</g>


</svg>