<?xml version="1.0" encoding="UTF-8" standalone="no"?>
<svg
   xmlns:dc="http://purl.org/dc/elements/1.1/"
   xmlns:cc="http://creativecommons.org/ns#"
   xmlns:rdf="http://www.w3.org/1999/02/22-rdf-syntax-ns#"
   xmlns:svg="http://www.w3.org/2000/svg"
   xmlns="http://www.w3.org/2000/svg"
   xmlns:sodipodi="http://sodipodi.sourceforge.net/DTD/sodipodi-0.dtd"
   xmlns:inkscape="http://www.inkscape.org/namespaces/inkscape"
   version="1.0"
   width="4096"
   height="4096"
   viewBox="0 0 409.6 409.6"
   id="svg10"
   sodipodi:docname="bvb-borussia-dortmund-logo.svg"
   inkscape:export-filename="G:\Users\suitedoalex\sites\svg\bvb-borussia-dortmund-logo-0.png"
   inkscape:export-xdpi="96"
   inkscape:export-ydpi="96"
   inkscape:version="0.92.2 (5c3e80d, 2017-08-06)">
  <metadata
     id="metadata14">
    <rdf:RDF>
      <cc:Work
         rdf:about="">
        <dc:format>image/svg+xml</dc:format>
        <dc:type
           rdf:resource="http://purl.org/dc/dcmitype/StillImage" />
        <dc:title></dc:title>
      </cc:Work>
    </rdf:RDF>
  </metadata>
  <sodipodi:namedview
     pagecolor="#ffffff"
     bordercolor="#666666"
     borderopacity="1"
     objecttolerance="10"
     gridtolerance="10"
     guidetolerance="10"
     inkscape:pageopacity="0"
     inkscape:pageshadow="2"
     inkscape:window-width="1600"
     inkscape:window-height="837"
     id="namedview12"
     showgrid="false"
     inkscape:zoom="0.052678572"
     inkscape:cx="1621.6578"
     inkscape:cy="4974.3002"
     inkscape:window-x="-8"
     inkscape:window-y="-8"
     inkscape:window-maximized="1"
     inkscape:current-layer="svg10" />
  <defs
     id="defs2" />
  <circle
     cx="204.8"
     cy="204.8"
     r="142.93819"
     style="fill:#fde100;fill-rule:nonzero;stroke:none;stroke-width:5.19775152"
     id="circle4"
     inkscape:export-xdpi="13.43238"
     inkscape:export-ydpi="13.43238" />
  <circle
     cx="204.8"
     cy="204.8"
     r="132.54268"
     style="fill:none;stroke:#000000;stroke-width:7.27685261"
     id="circle6"
     inkscape:export-xdpi="13.43238"
     inkscape:export-ydpi="13.43238" />
  <path
     d="m 161.97051,96.847863 35.08483,108.523857 h 15.12545 L 246.79783,96.847863 H 225.64297 L 204.5401,169.29932 183.59316,96.847863 Z m -54.23854,53.427677 v 107.0737 h 33.60346 c 27.23622,0 41.01027,-32.95374 22.09046,-53.27696 0,0 0,-0.10396 0,-0.20791 0,-0.10395 0.15593,-0.15593 0.15593,-0.15593 15.74918,-17.72433 9.09606,-49.01481 -20.1153,-53.4329 z m 139.06586,0 v 107.0737 h 33.78538 c 27.18424,0 40.95828,-32.95374 22.09044,-53.27696 0,0 0,-0.10396 0,-0.20791 0,-0.10395 0.15594,-0.15593 0.15594,-0.15593 15.69721,-17.72433 9.09606,-49.01481 -20.16728,-53.4329 z m -119.39236,20.01135 h 16.52884 c 10.75935,0 12.9424,20.5831 0.67571,23.85769 h -17.20455 z m 139.35172,0 h 16.4249 c 10.70736,0 12.9424,20.5831 0.62373,23.85769 h -17.04863 z m -139.35172,43.03739 h 14.60567 c 12.11076,0 16.58083,22.03847 0.83164,25.15712 h -15.43731 z m 139.35172,0 h 14.44975 c 12.11076,0 16.58083,22.03847 0.83164,25.15712 h -15.28139 z m -83.16403,46.25999 c -8.68025,0 -15.74918,7.12092 -15.74918,15.80117 v 23.70175 c 0,8.68025 7.06893,15.74918 15.74918,15.74918 h 0.31187 c 8.68024,0 15.74918,-7.06893 15.74918,-15.74918 v -23.70175 c 0,-8.68025 -7.06894,-15.80117 -15.74918,-15.80117 z m 41.73795,0 c -8.68024,0 -16.06106,6.75708 -16.06106,15.43733 v 3.89831 c 0,8.68024 7.90059,15.69721 16.06106,15.9571 0,0 3.32655,-0.052 5.04182,-0.98758 l 0.15593,5.35368 c 0,2.70284 -2.18305,5.0938 -4.88589,5.04183 -2.18305,-0.10395 -5.19775,-1.19548 -5.19775,-3.89832 0,0 0.51977,-3.58645 -2.0791,-3.58645 h -9.09607 c -0.10395,0.88363 0,1.4034 0,2.59888 0,8.21245 7.01697,15.43732 16.52885,15.43732 8.99212,-0.10395 15.2814,-6.96498 15.2814,-15.90511 v -23.75374 c 0,-8.68023 -6.75708,-15.59325 -15.43733,-15.59325 z m 0.15593,11.22714 c 2.85877,0 5.04182,2.18306 5.04182,4.8859 v 3.06666 c 0,2.70284 -2.18305,4.88589 -4.88589,4.88589 -2.85876,0 -5.19775,-2.18305 -5.19775,-4.88589 v -3.06666 c 0,-2.70284 2.33899,-4.8859 5.04182,-4.8859 z m -41.89388,0.15594 c 2.85876,0 5.19775,2.18305 5.19775,4.88589 v 23.54581 c 0,2.70284 -2.33899,4.88589 -5.04182,4.88589 -2.85876,0 -5.04181,-2.18305 -5.04181,-4.88589 v -23.54581 c 0,-2.70284 2.18305,-4.88589 4.88588,-4.88589 z"
     style="fill:#000000;fill-rule:nonzero;stroke:none;stroke-width:5.19775152"
     id="path8"
     inkscape:connector-curvature="0"
     inkscape:export-xdpi="13.43238"
     inkscape:export-ydpi="13.43238" />
</svg>
