<?xml version="1.0" encoding="UTF-8"?>
<svg xmlns="http://www.w3.org/2000/svg" xmlns:xlink="http://www.w3.org/1999/xlink" width="424.21pt" height="424.21pt" viewBox="0 0 424.21 424.21" version="1.1">
<g id="surface1">
<path style=" stroke:none;fill-rule:nonzero;fill:rgb(3.898621%,36.898804%,53.29895%);fill-opacity:1;" d="M 0 214.167969 C 0 95.949219 94.847656 0.00390625 211.898438 0.00390625 C 328.949219 0.00390625 424.207031 95.949219 424.207031 214.167969 C 424.207031 332.316406 328.949219 424.210938 211.898438 424.210938 C 94.847656 424.210938 0 332.316406 0 214.167969 "/>
<path style=" stroke:none;fill-rule:nonzero;fill:rgb(100%,100%,100%);fill-opacity:1;" d="M 61.925781 212.175781 C 61.925781 129.214844 129.214844 61.996094 212.035156 61.996094 C 294.992188 61.996094 362.210938 129.214844 362.210938 212.175781 C 362.210938 294.996094 294.992188 362.285156 212.035156 362.285156 C 129.214844 362.285156 61.925781 294.996094 61.925781 212.175781 "/>
<path style=" stroke:none;fill-rule:nonzero;fill:rgb(0%,59.999084%,85.499573%);fill-opacity:1;" d="M 67.355469 212.175781 C 67.355469 132.238281 132.171875 67.425781 212.035156 67.425781 C 291.96875 67.425781 356.785156 132.238281 356.785156 212.175781 C 356.785156 292.039063 291.96875 356.855469 212.035156 356.855469 C 132.171875 356.855469 67.355469 292.039063 67.355469 212.175781 "/>
<path style=" stroke:none;fill-rule:nonzero;fill:rgb(100%,100%,100%);fill-opacity:1;" d="M 180.007813 122.480469 L 267.914063 228.394531 L 267.914063 156.847656 C 267.914063 138.632813 263.03125 129.355469 244.339844 129.355469 L 244.339844 122.480469 L 299.253906 122.480469 L 299.253906 129.355469 C 279.804688 129.355469 279.183594 140.074219 279.183594 156.847656 L 279.183594 297.402344 L 271.761719 297.402344 L 158.90625 161.449219 L 158.90625 263.171875 C 158.90625 279.257813 165.4375 285.992188 182.6875 285.992188 L 182.6875 292.933594 L 124.882813 292.933594 L 124.882813 285.992188 C 145.089844 285.992188 147.429688 276.78125 147.429688 264.480469 L 147.429688 147.566406 L 140.96875 139.871094 C 133.269531 130.726563 129.902344 129.355469 125.367188 129.355469 L 125.367188 122.480469 L 180.007813 122.480469 "/>
<path style=" stroke:none;fill-rule:nonzero;fill:rgb(100%,100%,100%);fill-opacity:1;" d="M 56.949219 287.589844 L 43.761719 294.929688 C 40.519531 296.738281 37.191406 298.589844 39.300781 302.78125 L 37.765625 303.636719 C 36.859375 301.90625 35.96875 300.109375 35.0625 298.378906 C 34.117188 296.78125 33.128906 295.207031 32.183594 293.609375 L 33.71875 292.753906 C 36.03125 296.105469 37.921875 295.386719 40.953125 293.699219 L 58.105469 284.148438 C 59.265625 281.714844 59.726563 280.730469 58.632813 278.265625 L 60.167969 277.410156 C 60.886719 278.800781 61.539063 280.171875 62.253906 281.558594 C 63.203125 283.15625 64.164063 284.6875 65.109375 286.285156 L 55.082031 313.953125 L 66.433594 307.632813 C 69.675781 305.824219 72.789063 304.089844 70.703125 299.941406 L 72.238281 299.085938 C 73.097656 300.734375 73.917969 302.402344 74.777344 304.046875 C 75.769531 305.730469 76.804688 307.390625 77.800781 309.070313 L 76.261719 309.925781 C 75.386719 308.851563 74.453125 307.582031 72.96875 307.625 C 71.375 307.671875 68.773438 309.125 67.363281 309.90625 L 46.839844 321.335938 L 45.675781 319.246094 L 56.949219 287.589844 "/>
<path style=" stroke:none;fill-rule:nonzero;fill:rgb(100%,100%,100%);fill-opacity:1;" d="M 74.179688 334.808594 L 79.832031 324.195313 L 68.34375 328.105469 Z M 64.441406 329.496094 C 63.230469 329.964844 61.570313 330.4375 60.574219 331.304688 C 58.769531 332.875 60.132813 334.664063 61.210938 336.125 L 59.882813 337.277344 C 58.574219 335.699219 57.300781 334.085938 55.992188 332.507813 C 54.734375 331.140625 53.445313 329.804688 52.1875 328.433594 L 53.515625 327.28125 C 56.179688 330.269531 60.648438 328.261719 63.765625 327.230469 L 87.652344 319.265625 L 89.191406 321.035156 L 76.855469 345.105469 C 76.214844 346.375 75.015625 348.714844 74.917969 350.09375 C 74.90625 351.269531 75.554688 352.386719 76.214844 353.367188 L 74.886719 354.519531 C 73 352.277344 71.152344 350.003906 69.265625 347.761719 C 67.558594 345.875 65.789063 343.988281 64.082031 342.105469 L 65.410156 340.953125 C 66.519531 341.929688 68.144531 343.945313 69.730469 342.566406 C 70.316406 342.054688 71.191406 340.453125 71.550781 339.75 L 72.976563 337.148438 L 65.894531 329.007813 L 64.441406 329.496094 "/>
<path style=" stroke:none;fill-rule:nonzero;fill:rgb(100%,100%,100%);fill-opacity:1;" d="M 98.820313 351.886719 C 102.605469 354.894531 105.53125 355.53125 108.8125 351.398438 C 111.300781 348.261719 111.289063 345.136719 108.078125 342.585938 C 107.234375 341.917969 106.484375 341.445313 106.171875 341.449219 C 105.859375 341.449219 105.488281 341.839844 104.636719 342.910156 L 98.015625 351.25 Z M 96.691406 340.902344 C 99.179688 337.765625 100.746094 335.953125 96.980469 333.152344 L 98.074219 331.773438 C 100.292969 333.535156 102.296875 335.253906 104.304688 336.96875 C 106.320313 338.511719 108.410156 340.042969 110.429688 341.585938 C 114.921875 345.273438 119.59375 350.855469 115.070313 356.554688 C 110.910156 361.796875 104.308594 359.113281 100.0625 355.742188 L 96.621094 353.007813 L 92.339844 358.402344 C 89.636719 361.804688 88.382813 363.304688 92.375 366.289063 L 91.28125 367.664063 C 88.980469 365.773438 86.707031 363.84375 84.402344 361.953125 C 82.308594 360.351563 80.21875 358.820313 77.972656 357.097656 L 79.0625 355.71875 C 82.644531 358.75 83.996094 356.890625 86.484375 353.753906 L 96.691406 340.902344 "/>
<path style=" stroke:none;fill-rule:nonzero;fill:rgb(100%,100%,100%);fill-opacity:1;" d="M 122.019531 368.742188 C 119.234375 374.339844 117.007813 382.667969 124.046875 386.167969 C 131.222656 389.730469 136.121094 383.929688 139.121094 377.894531 C 142.035156 372.035156 144.132813 363.972656 136.871094 360.363281 C 129.875 356.882813 124.800781 363.144531 122.019531 368.742188 Z M 114.320313 365.242188 C 118.972656 355.882813 129.214844 354.046875 138.003906 358.414063 C 146.839844 362.804688 151.449219 372.078125 146.816406 381.394531 C 142.1875 390.710938 131.882813 392.570313 123.046875 388.179688 C 114.257813 383.808594 109.734375 374.472656 114.320313 365.242188 "/>
<path style=" stroke:none;fill-rule:nonzero;fill:rgb(100%,100%,100%);fill-opacity:1;" d="M 147.746094 396.554688 C 152.25 397.871094 152.730469 395.625 153.734375 391.75 L 157.875 375.769531 C 158.878906 371.890625 159.550781 369.695313 154.972656 368.660156 L 155.414063 366.957031 C 157.90625 367.652344 160.34375 368.386719 162.835938 369.082031 C 165.730469 369.78125 168.6875 370.445313 171.585938 371.144531 L 171.144531 372.847656 C 166.640625 371.53125 166.113281 373.765625 165.109375 377.640625 L 161.542969 391.398438 C 160.308594 396.175781 159.453125 399.082031 165.222656 400.574219 C 170.5625 401.960938 173.273438 401.046875 175.980469 396.046875 L 178.011719 396.574219 L 175.34375 405.519531 C 166.796875 403.253906 158.21875 400.933594 155.394531 400.148438 C 152.6875 399.5 150.015625 398.90625 147.308594 398.257813 L 147.746094 396.554688 "/>
<path style=" stroke:none;fill-rule:nonzero;fill:rgb(100%,100%,100%);fill-opacity:1;" d="M 188.941406 382.523438 C 189.371094 378.492188 189.765625 376.226563 185.042969 375.816406 L 185.230469 374.070313 C 187.894531 374.402344 190.507813 374.78125 193.171875 375.117188 C 196.042969 375.375 198.96875 375.589844 201.789063 375.84375 L 201.601563 377.59375 C 196.898438 377.039063 196.796875 379.335938 196.371094 383.320313 L 194.601563 399.832031 C 194.171875 403.8125 193.90625 405.847656 198.527344 406.246094 L 198.34375 407.992188 C 195.53125 407.640625 192.675781 407.238281 189.816406 406.882813 C 187.140625 406.644531 184.457031 406.453125 181.78125 406.21875 L 181.96875 404.46875 C 186.664063 405.121094 186.765625 402.820313 187.191406 398.839844 L 188.941406 382.523438 "/>
<path style=" stroke:none;fill-rule:nonzero;fill:rgb(100%,100%,100%);fill-opacity:1;" d="M 225.558594 407.929688 L 223.421875 408.167969 L 222.289063 398.074219 L 224.230469 397.855469 C 226.085938 402.121094 228.777344 405.945313 234.164063 405.339844 C 236.980469 405.023438 239.488281 402.875 239.152344 399.867188 C 238.644531 395.351563 233.847656 394.660156 230.289063 393.585938 C 225.707031 392.183594 221.890625 390.15625 221.292969 384.816406 C 220.621094 378.847656 224.824219 375.132813 230.457031 374.5 C 233.074219 374.207031 235.859375 374.484375 238 376.0625 L 238.421875 374.097656 L 240.507813 373.863281 L 241.78125 382.566406 L 239.691406 382.800781 C 238.398438 379.160156 235.269531 376.21875 231.046875 376.695313 C 228.667969 376.960938 226.394531 378.59375 226.6875 381.214844 C 227.09375 384.855469 230.898438 385.457031 233.808594 386.410156 C 239.25 388.058594 244.410156 389.789063 245.140625 396.292969 C 245.875 402.847656 240.722656 406.867188 234.753906 407.535156 C 231.648438 407.882813 228.375 407.171875 225.9375 405.183594 L 225.558594 407.929688 "/>
<path style=" stroke:none;fill-rule:nonzero;fill:rgb(100%,100%,100%);fill-opacity:1;" d="M 258.304688 386.292969 C 260.183594 392.257813 264.355469 399.800781 271.855469 397.4375 C 279.496094 395.03125 279 387.453125 276.976563 381.023438 C 275.007813 374.78125 270.925781 367.515625 263.191406 369.953125 C 255.738281 372.304688 256.425781 380.332031 258.304688 386.292969 Z M 250.335938 389.113281 C 247.195313 379.144531 253.292969 370.71875 262.65625 367.769531 C 272.066406 364.800781 281.816406 368.285156 284.945313 378.203125 C 288.074219 388.125 281.9375 396.613281 272.53125 399.582031 C 263.167969 402.53125 253.433594 398.941406 250.335938 389.113281 "/>
<path style=" stroke:none;fill-rule:nonzero;fill:rgb(100%,100%,100%);fill-opacity:1;" d="M 320.421875 373.144531 C 319.285156 376.84375 316.347656 379.667969 313.046875 381.570313 C 304.671875 386.40625 295.667969 384.382813 290.761719 375.882813 C 285.753906 367.210938 288.316406 357.386719 296.949219 352.40625 C 299.992188 350.648438 302.972656 349.945313 306.480469 350.457031 L 305.722656 347.679688 L 307.542969 346.628906 L 313.050781 355.292969 L 311.1875 356.367188 C 307.957031 352.820313 303.5 351.445313 299.140625 353.960938 C 292.585938 357.742188 294.710938 365.820313 297.808594 371.191406 C 301.152344 376.988281 306.828125 382.230469 313.601563 378.429688 C 318.515625 375.707031 318.949219 370.496094 317.148438 365.617188 L 318.839844 364.640625 L 324.332031 374.15625 L 322.640625 375.132813 L 320.421875 373.144531 "/>
<path style=" stroke:none;fill-rule:nonzero;fill:rgb(100%,100%,100%);fill-opacity:1;" d="M 350.101563 348.707031 C 349.730469 352.558594 347.414063 355.910156 344.5625 358.4375 C 337.320313 364.847656 328.09375 364.667969 321.585938 357.316406 C 314.949219 349.820313 315.496094 339.683594 322.957031 333.078125 C 325.589844 330.746094 328.367188 329.460938 331.90625 329.261719 L 330.609375 326.691406 L 332.183594 325.300781 L 339.3125 332.6875 L 337.703125 334.113281 C 333.828125 331.28125 329.183594 330.828125 325.417969 334.160156 C 319.75 339.179688 323.445313 346.671875 327.558594 351.3125 C 331.992188 356.324219 338.601563 360.324219 344.480469 355.25 C 348.75 351.597656 348.132813 346.40625 345.390625 341.984375 L 346.851563 340.6875 L 354.136719 348.914063 L 352.675781 350.210938 L 350.101563 348.707031 "/>
<path style=" stroke:none;fill-rule:nonzero;fill:rgb(100%,100%,100%);fill-opacity:1;" d="M 357.984375 342.488281 C 360.957031 338.855469 359.078125 337.535156 355.898438 335.097656 L 342.804688 325.046875 C 339.625 322.609375 337.863281 321.136719 335.125 324.945313 L 333.730469 323.875 C 335.464844 321.695313 337.207031 319.585938 338.941406 317.40625 C 342.527344 312.648438 346.109375 307.824219 349.699219 303.066406 L 356.753906 307.988281 L 355.476563 309.65625 C 351.136719 307.371094 348.238281 308.65625 345.386719 312.378906 C 345.027344 312.84375 343.125 315.320313 343.375 315.882813 C 343.476563 316.148438 345.183594 317.453125 345.492188 317.691406 L 352.660156 323.195313 C 355.070313 320.054688 356.035156 317.59375 352.550781 314.675781 L 353.738281 313.125 C 355.492188 314.53125 357.214844 315.976563 358.964844 317.382813 C 360.585938 318.5625 362.269531 319.734375 363.890625 320.914063 L 362.699219 322.464844 C 358.570313 320.464844 357.179688 320.996094 354.441406 324.5625 L 358.976563 328.039063 C 362.617188 330.835938 364.851563 332.734375 368.363281 328.164063 C 371.722656 323.785156 371.710938 321.070313 368.078125 316.742188 L 369.265625 315.191406 C 370.710938 316.359375 372.085938 317.539063 373.527344 318.707031 C 374.601563 319.46875 375.667969 320.164063 376.746094 320.929688 C 372.601563 326.246094 368.421875 331.535156 364.28125 336.851563 C 362.625 339.089844 361.035156 341.320313 359.378906 343.558594 L 357.984375 342.488281 "/>
<path style=" stroke:none;fill-rule:nonzero;fill:rgb(100%,100%,100%);fill-opacity:1;" d="M 371.714844 295.5 C 373.789063 291.296875 373.230469 288.351563 368.894531 286.207031 C 364.910156 284.238281 361.984375 284.863281 359.953125 288.980469 C 359.714844 289.460938 358.933594 290.929688 359.394531 291.320313 C 359.8125 291.691406 362.789063 293.160156 363.402344 293.464844 L 370.890625 297.164063 Z M 385.976563 286.695313 C 387.703125 286.402344 389.621094 286.152344 391.28125 285.664063 C 392.699219 285.21875 393.328125 284.714844 394.199219 283.617188 L 395.773438 284.398438 C 395.015625 285.820313 394.214844 287.222656 393.457031 288.644531 C 392.785156 290.113281 392.160156 291.601563 391.492188 293.066406 L 379.617188 294.9375 C 376.890625 295.386719 373.769531 296.1875 373.253906 297.457031 C 373.144531 297.675781 373.058594 297.960938 372.949219 298.179688 L 378.730469 301.035156 C 382.320313 302.808594 384.355469 303.871094 386.300781 299.601563 L 387.878906 300.378906 C 386.601563 302.855469 385.257813 305.351563 383.980469 307.824219 C 382.792969 310.34375 381.667969 312.835938 380.480469 315.355469 L 378.902344 314.578125 C 381.113281 310.4375 379.011719 309.507813 375.421875 307.734375 L 360.621094 300.421875 C 357.027344 298.648438 355.011719 297.546875 353.066406 301.8125 L 351.492188 301.035156 C 352.769531 298.5625 354.070313 296.152344 355.34375 293.679688 C 356.46875 291.292969 357.550781 288.882813 358.675781 286.496094 C 359.800781 284.4375 361.511719 281.308594 363.292969 279.792969 C 365.839844 277.507813 368.9375 277.1875 372.003906 278.699219 C 375.902344 280.628906 376.730469 285.121094 375.527344 288.992188 L 385.976563 286.695313 "/>
</g>
</svg>
